G75*
G70*
%OFA0B0*%
%FSLAX24Y24*%
%IPPOS*%
%LPD*%
%AMOC8*
5,1,8,0,0,1.08239X$1,22.5*
%
%ADD10C,0.0160*%
%ADD11C,0.0040*%
%ADD12C,0.0050*%
%ADD13C,0.0080*%
%ADD14C,0.0079*%
%ADD15C,0.0157*%
%ADD16C,0.0060*%
%ADD17C,0.0100*%
%ADD18C,0.0070*%
%ADD19C,0.0030*%
%ADD20R,0.0100X0.0200*%
%ADD21R,0.0050X0.0150*%
%ADD22R,0.0100X0.0100*%
D10*
X007600Y001050D02*
X013600Y001050D01*
X024600Y001050D01*
X028600Y001050D01*
X031600Y001050D01*
X031600Y002050D01*
X031600Y004350D01*
X031600Y005350D01*
X028600Y005350D01*
X028600Y004350D01*
X024600Y004350D01*
X024600Y005350D01*
X028600Y005350D01*
X028600Y004350D02*
X028600Y002050D01*
X028600Y001050D01*
X028600Y002050D02*
X031600Y002050D01*
X031600Y004350D02*
X028600Y004350D01*
X028600Y002050D02*
X024600Y002050D01*
X024600Y004350D01*
X013600Y004350D01*
X013600Y005350D01*
X024600Y005350D01*
X024600Y002050D02*
X024600Y001050D01*
X024600Y002050D02*
X013600Y002050D01*
X013600Y004350D01*
X007600Y004350D01*
X007600Y005350D01*
X013600Y005350D01*
X013600Y002050D02*
X013600Y001050D01*
X013600Y002050D02*
X007600Y002050D01*
X007600Y004350D01*
X007600Y002050D02*
X007600Y001050D01*
X018900Y008709D02*
X021300Y008709D01*
X021357Y008711D01*
X021413Y008717D01*
X021469Y008726D01*
X021525Y008739D01*
X021579Y008756D01*
X021632Y008776D01*
X021683Y008800D01*
X021733Y008828D01*
X021781Y008858D01*
X021827Y008892D01*
X021870Y008929D01*
X021911Y008968D01*
X021949Y009010D01*
X021984Y009055D01*
X022016Y009102D01*
X022045Y009151D01*
X022071Y009201D01*
X022093Y009254D01*
X022112Y009307D01*
X022127Y009362D01*
X022138Y009418D01*
X022146Y009474D01*
X022150Y009531D01*
X022150Y009587D01*
X022146Y009644D01*
X022138Y009700D01*
X022127Y009756D01*
X022112Y009811D01*
X022093Y009864D01*
X022071Y009917D01*
X022045Y009967D01*
X022016Y010016D01*
X021984Y010063D01*
X021949Y010108D01*
X021911Y010150D01*
X021870Y010189D01*
X021827Y010226D01*
X021781Y010260D01*
X021733Y010290D01*
X021683Y010318D01*
X021632Y010342D01*
X021579Y010362D01*
X021525Y010379D01*
X021469Y010392D01*
X021413Y010401D01*
X021357Y010407D01*
X021300Y010409D01*
X018900Y010409D01*
X018843Y010407D01*
X018787Y010401D01*
X018731Y010392D01*
X018675Y010379D01*
X018621Y010362D01*
X018568Y010342D01*
X018517Y010318D01*
X018467Y010290D01*
X018419Y010260D01*
X018373Y010226D01*
X018330Y010189D01*
X018289Y010150D01*
X018251Y010108D01*
X018216Y010063D01*
X018184Y010016D01*
X018155Y009967D01*
X018129Y009917D01*
X018107Y009864D01*
X018088Y009811D01*
X018073Y009756D01*
X018062Y009700D01*
X018054Y009644D01*
X018050Y009587D01*
X018050Y009531D01*
X018054Y009474D01*
X018062Y009418D01*
X018073Y009362D01*
X018088Y009307D01*
X018107Y009254D01*
X018129Y009201D01*
X018155Y009151D01*
X018184Y009102D01*
X018216Y009055D01*
X018251Y009010D01*
X018289Y008968D01*
X018330Y008929D01*
X018373Y008892D01*
X018419Y008858D01*
X018467Y008828D01*
X018517Y008800D01*
X018568Y008776D01*
X018621Y008756D01*
X018675Y008739D01*
X018731Y008726D01*
X018787Y008717D01*
X018843Y008711D01*
X018900Y008709D01*
X019600Y023166D02*
X013600Y023166D01*
X013600Y024166D01*
X013600Y026566D01*
X019600Y026566D01*
X019600Y024166D01*
X019600Y023166D01*
X025600Y023166D01*
X031600Y023166D01*
X031600Y024166D01*
X025600Y024166D01*
X025600Y023166D01*
X025600Y024166D02*
X019600Y024166D01*
X013600Y024166D01*
X007600Y024166D01*
X007600Y023166D01*
X013600Y023166D01*
X013600Y026566D02*
X007600Y026566D01*
X007600Y024166D01*
X007313Y024178D02*
X005313Y024178D01*
X005313Y025078D01*
X007313Y025078D01*
X007313Y026078D01*
X006313Y026078D01*
X006313Y026978D01*
X004313Y026978D01*
X004313Y026078D01*
X004313Y025078D01*
X005313Y025078D01*
X006313Y026078D02*
X004313Y026078D01*
X007313Y025078D02*
X007313Y024178D01*
X007600Y026566D02*
X007600Y027566D01*
X013600Y027566D01*
X019600Y027566D01*
X019600Y026566D01*
X025600Y026566D01*
X025600Y024166D01*
X025600Y026566D02*
X031600Y026566D01*
X031600Y024166D01*
X031600Y026566D02*
X031600Y027566D01*
X025600Y027566D01*
X019600Y027566D01*
X025600Y027566D02*
X025600Y026566D01*
X032600Y026566D02*
X033600Y026566D01*
X033600Y027566D01*
X032600Y027566D01*
X032600Y026566D01*
X013600Y026566D02*
X013600Y027566D01*
D11*
X013820Y026244D02*
X014127Y026244D01*
X014280Y026090D01*
X014127Y025937D01*
X013820Y025937D01*
X013896Y025783D02*
X013973Y025783D01*
X014050Y025707D01*
X014127Y025783D01*
X014203Y025783D01*
X014280Y025707D01*
X014280Y025553D01*
X014203Y025476D01*
X014203Y025323D02*
X014280Y025323D01*
X014280Y025246D01*
X014203Y025246D01*
X014203Y025323D01*
X014203Y025093D02*
X014127Y025093D01*
X014050Y025016D01*
X014050Y024939D01*
X014050Y025016D02*
X013973Y025093D01*
X013896Y025093D01*
X013820Y025016D01*
X013820Y024862D01*
X013896Y024786D01*
X014203Y024786D02*
X014280Y024862D01*
X014280Y025016D01*
X014203Y025093D01*
X014820Y025339D02*
X015280Y025339D01*
X015280Y025186D02*
X015280Y025493D01*
X015280Y025646D02*
X015280Y025723D01*
X015203Y025723D01*
X015203Y025646D01*
X015280Y025646D01*
X015203Y025876D02*
X015127Y025876D01*
X015050Y025953D01*
X015050Y026107D01*
X015127Y026183D01*
X015203Y026183D01*
X015280Y026107D01*
X015280Y025953D01*
X015203Y025876D01*
X015050Y025953D02*
X014973Y025876D01*
X014896Y025876D01*
X014820Y025953D01*
X014820Y026107D01*
X014896Y026183D01*
X014973Y026183D01*
X015050Y026107D01*
X015820Y026107D02*
X015820Y025953D01*
X015896Y025876D01*
X015973Y025876D01*
X016050Y025953D01*
X016050Y026183D01*
X016203Y026183D02*
X015896Y026183D01*
X015820Y026107D01*
X016203Y026183D02*
X016280Y026107D01*
X016280Y025953D01*
X016203Y025876D01*
X016203Y025723D02*
X016280Y025723D01*
X016280Y025646D01*
X016203Y025646D01*
X016203Y025723D01*
X016280Y025493D02*
X016280Y025186D01*
X016280Y025339D02*
X015820Y025339D01*
X015973Y025186D01*
X016820Y024939D02*
X017280Y024939D01*
X017280Y024786D02*
X017280Y025093D01*
X017280Y025246D02*
X017203Y025246D01*
X017203Y025323D01*
X017280Y025323D01*
X017280Y025246D01*
X017280Y025476D02*
X017280Y025783D01*
X017280Y025630D02*
X016820Y025630D01*
X016973Y025476D01*
X016896Y025937D02*
X016820Y026013D01*
X016820Y026167D01*
X016896Y026244D01*
X017203Y025937D01*
X017280Y026013D01*
X017280Y026167D01*
X017203Y026244D01*
X016896Y026244D01*
X016896Y025937D02*
X017203Y025937D01*
X017920Y026090D02*
X018380Y026090D01*
X018380Y025937D02*
X018380Y026244D01*
X018073Y025937D02*
X017920Y026090D01*
X017920Y025630D02*
X018380Y025630D01*
X018380Y025783D02*
X018380Y025476D01*
X018380Y025323D02*
X018303Y025323D01*
X018303Y025246D01*
X018380Y025246D01*
X018380Y025323D01*
X018380Y025093D02*
X018380Y024786D01*
X018380Y024939D02*
X017920Y024939D01*
X018073Y024786D01*
X018820Y025062D02*
X018820Y025216D01*
X018896Y025293D01*
X019050Y025293D02*
X019050Y025139D01*
X019050Y025293D02*
X019203Y025293D01*
X019280Y025216D01*
X019280Y025062D01*
X019203Y024986D01*
X018896Y024986D01*
X018820Y025062D01*
X018820Y025446D02*
X019280Y025753D01*
X018820Y025753D01*
X018820Y025907D02*
X018820Y026137D01*
X018896Y026213D01*
X019203Y026213D01*
X019280Y026137D01*
X019280Y025907D01*
X018820Y025907D01*
X018820Y025446D02*
X019280Y025446D01*
X019820Y025553D02*
X019820Y025707D01*
X019896Y025783D01*
X019973Y025783D01*
X020050Y025707D01*
X020127Y025783D01*
X020203Y025783D01*
X020280Y025707D01*
X020280Y025553D01*
X020203Y025476D01*
X020203Y025323D02*
X020280Y025323D01*
X020280Y025246D01*
X020203Y025246D01*
X020203Y025323D01*
X020203Y025093D02*
X020280Y025016D01*
X020280Y024862D01*
X020203Y024786D01*
X020050Y024939D02*
X020050Y025016D01*
X020127Y025093D01*
X020203Y025093D01*
X020050Y025016D02*
X019973Y025093D01*
X019896Y025093D01*
X019820Y025016D01*
X019820Y024862D01*
X019896Y024786D01*
X019896Y025476D02*
X019820Y025553D01*
X020050Y025630D02*
X020050Y025707D01*
X020127Y025937D02*
X019820Y025937D01*
X020127Y025937D02*
X020280Y026090D01*
X020127Y026244D01*
X019820Y026244D01*
X020820Y026137D02*
X020820Y025983D01*
X020896Y025907D01*
X020896Y025753D02*
X020820Y025676D01*
X020820Y025446D01*
X021280Y025446D01*
X021280Y025676D01*
X021203Y025753D01*
X020896Y025753D01*
X021050Y026060D02*
X021050Y026137D01*
X021127Y026213D01*
X021203Y026213D01*
X021280Y026137D01*
X021280Y025983D01*
X021203Y025907D01*
X021050Y026137D02*
X020973Y026213D01*
X020896Y026213D01*
X020820Y026137D01*
X020973Y025293D02*
X021280Y025293D01*
X021050Y025293D02*
X021050Y024986D01*
X020973Y024986D02*
X020820Y025139D01*
X020973Y025293D01*
X020973Y024986D02*
X021280Y024986D01*
X021820Y025139D02*
X021973Y024986D01*
X022280Y024986D01*
X022050Y024986D02*
X022050Y025293D01*
X021973Y025293D02*
X022280Y025293D01*
X022280Y025446D02*
X021820Y025446D01*
X021820Y025676D01*
X021896Y025753D01*
X022203Y025753D01*
X022280Y025676D01*
X022280Y025446D01*
X021973Y025293D02*
X021820Y025139D01*
X021896Y025907D02*
X021820Y025983D01*
X021820Y026137D01*
X021896Y026213D01*
X021973Y026213D01*
X022280Y025907D01*
X022280Y026213D01*
X022820Y026060D02*
X023280Y026060D01*
X023280Y025907D02*
X023280Y026213D01*
X022973Y025907D02*
X022820Y026060D01*
X022896Y025753D02*
X022820Y025676D01*
X022820Y025446D01*
X023280Y025446D01*
X023280Y025676D01*
X023203Y025753D01*
X022896Y025753D01*
X022973Y025293D02*
X022820Y025139D01*
X022973Y024986D01*
X023280Y024986D01*
X023050Y024986D02*
X023050Y025293D01*
X022973Y025293D02*
X023280Y025293D01*
X023820Y025446D02*
X023820Y025676D01*
X023896Y025753D01*
X024203Y025753D01*
X024280Y025676D01*
X024280Y025446D01*
X023820Y025446D01*
X023973Y025293D02*
X024280Y025293D01*
X024050Y025293D02*
X024050Y024986D01*
X023973Y024986D02*
X023820Y025139D01*
X023973Y025293D01*
X023973Y024986D02*
X024280Y024986D01*
X024820Y025062D02*
X024820Y025216D01*
X024896Y025293D01*
X025050Y025293D02*
X025050Y025139D01*
X025050Y025293D02*
X025203Y025293D01*
X025280Y025216D01*
X025280Y025062D01*
X025203Y024986D01*
X024896Y024986D01*
X024820Y025062D01*
X024820Y025446D02*
X025280Y025753D01*
X024820Y025753D01*
X024820Y025907D02*
X024820Y026137D01*
X024896Y026213D01*
X025203Y026213D01*
X025280Y026137D01*
X025280Y025907D01*
X024820Y025907D01*
X024820Y025446D02*
X025280Y025446D01*
X025820Y025553D02*
X025820Y025707D01*
X025896Y025783D01*
X025973Y025783D01*
X026050Y025707D01*
X026127Y025783D01*
X026203Y025783D01*
X026280Y025707D01*
X026280Y025553D01*
X026203Y025476D01*
X026203Y025323D02*
X026280Y025323D01*
X026280Y025246D01*
X026203Y025246D01*
X026203Y025323D01*
X026203Y025093D02*
X026280Y025016D01*
X026280Y024862D01*
X026203Y024786D01*
X026050Y024939D02*
X026050Y025016D01*
X026127Y025093D01*
X026203Y025093D01*
X026050Y025016D02*
X025973Y025093D01*
X025896Y025093D01*
X025820Y025016D01*
X025820Y024862D01*
X025896Y024786D01*
X025896Y025476D02*
X025820Y025553D01*
X026050Y025630D02*
X026050Y025707D01*
X026127Y025937D02*
X025820Y025937D01*
X026127Y025937D02*
X026280Y026090D01*
X026127Y026244D01*
X025820Y026244D01*
X026820Y025967D02*
X027280Y025967D01*
X027280Y026274D01*
X027280Y025813D02*
X027280Y025507D01*
X026820Y025507D01*
X026820Y025813D01*
X027050Y025660D02*
X027050Y025507D01*
X027127Y025353D02*
X027203Y025353D01*
X027280Y025276D01*
X027280Y025123D01*
X027203Y025046D01*
X027203Y024893D02*
X027280Y024816D01*
X027280Y024662D01*
X027203Y024586D01*
X027050Y024662D02*
X027050Y024816D01*
X027127Y024893D01*
X027203Y024893D01*
X027050Y025123D02*
X027050Y025276D01*
X027127Y025353D01*
X026896Y025353D02*
X026820Y025276D01*
X026820Y025123D01*
X026896Y025046D01*
X026973Y025046D01*
X027050Y025123D01*
X026896Y024893D02*
X026820Y024816D01*
X026820Y024662D01*
X026896Y024586D01*
X026973Y024586D01*
X027050Y024662D01*
X027820Y025062D02*
X027820Y025216D01*
X027896Y025293D01*
X027896Y025446D02*
X028203Y025446D01*
X028280Y025523D01*
X028280Y025676D01*
X028203Y025753D01*
X028127Y025907D02*
X027820Y026213D01*
X027820Y025907D02*
X028280Y025907D01*
X028050Y025983D02*
X028280Y026213D01*
X027896Y025753D02*
X027820Y025676D01*
X027820Y025523D01*
X027896Y025446D01*
X028050Y025216D02*
X028127Y025293D01*
X028203Y025293D01*
X028280Y025216D01*
X028280Y025062D01*
X028203Y024986D01*
X028050Y025062D02*
X028050Y025216D01*
X028050Y025062D02*
X027973Y024986D01*
X027896Y024986D01*
X027820Y025062D01*
X028820Y024993D02*
X029280Y024993D01*
X029203Y025146D02*
X028896Y025146D01*
X028820Y025223D01*
X028820Y025376D01*
X028896Y025453D01*
X029203Y025453D01*
X029280Y025376D01*
X029280Y025223D01*
X029203Y025146D01*
X028973Y024839D02*
X028820Y024993D01*
X028973Y024839D02*
X028820Y024686D01*
X029280Y024686D01*
X029820Y024686D02*
X029973Y024839D01*
X029820Y024993D01*
X030280Y024993D01*
X030280Y025146D02*
X030280Y025300D01*
X030280Y025223D02*
X029820Y025223D01*
X029820Y025146D02*
X029820Y025300D01*
X029896Y025453D02*
X029820Y025530D01*
X029820Y025683D01*
X029896Y025760D01*
X029896Y025913D02*
X030203Y025913D01*
X030280Y025990D01*
X030280Y026144D01*
X030203Y026220D01*
X029896Y026220D01*
X029820Y026144D01*
X029820Y025990D01*
X029896Y025913D01*
X030050Y025683D02*
X030127Y025760D01*
X030203Y025760D01*
X030280Y025683D01*
X030280Y025530D01*
X030203Y025453D01*
X030050Y025530D02*
X030050Y025683D01*
X030050Y025530D02*
X029973Y025453D01*
X029896Y025453D01*
X029280Y025683D02*
X029203Y025607D01*
X029280Y025683D02*
X029280Y025837D01*
X029203Y025913D01*
X029127Y025913D01*
X029050Y025837D01*
X029050Y025683D01*
X028973Y025607D01*
X028896Y025607D01*
X028820Y025683D01*
X028820Y025837D01*
X028896Y025913D01*
X028820Y026067D02*
X028820Y026220D01*
X028820Y026144D02*
X029280Y026144D01*
X029280Y026220D02*
X029280Y026067D01*
X030820Y026037D02*
X030820Y025807D01*
X031280Y025807D01*
X031280Y026037D01*
X031203Y026113D01*
X030896Y026113D01*
X030820Y026037D01*
X030820Y025653D02*
X031280Y025653D01*
X030820Y025346D01*
X031280Y025346D01*
X031203Y025193D02*
X031050Y025193D01*
X031050Y025039D01*
X031203Y024886D02*
X031280Y024962D01*
X031280Y025116D01*
X031203Y025193D01*
X030896Y025193D02*
X030820Y025116D01*
X030820Y024962D01*
X030896Y024886D01*
X031203Y024886D01*
X030280Y024686D02*
X029820Y024686D01*
X028980Y023859D02*
X028893Y023946D01*
X028720Y023946D01*
X028633Y023859D01*
X028633Y023772D01*
X028720Y023686D01*
X028893Y023686D01*
X028980Y023599D01*
X028980Y023512D01*
X028893Y023425D01*
X028720Y023425D01*
X028633Y023512D01*
X028464Y023425D02*
X028204Y023425D01*
X028117Y023512D01*
X028117Y023686D01*
X028204Y023772D01*
X028464Y023772D01*
X028464Y023946D02*
X028464Y023425D01*
X027949Y023425D02*
X027775Y023425D01*
X027862Y023425D02*
X027862Y023946D01*
X027949Y023946D02*
X027775Y023946D01*
X024280Y025983D02*
X024203Y025907D01*
X023896Y026213D01*
X024203Y026213D01*
X024280Y026137D01*
X024280Y025983D01*
X024203Y025907D02*
X023896Y025907D01*
X023820Y025983D01*
X023820Y026137D01*
X023896Y026213D01*
X023080Y023946D02*
X023080Y023599D01*
X022907Y023425D01*
X022733Y023599D01*
X022733Y023946D01*
X022564Y023946D02*
X022304Y023946D01*
X022217Y023859D01*
X022217Y023512D01*
X022304Y023425D01*
X022564Y023425D01*
X022564Y023946D01*
X022733Y023686D02*
X023080Y023686D01*
X022049Y023512D02*
X022049Y023859D01*
X021962Y023946D01*
X021788Y023946D01*
X021702Y023859D01*
X021702Y023512D02*
X021788Y023425D01*
X021962Y023425D01*
X022049Y023512D01*
X018073Y025476D02*
X017920Y025630D01*
X016973Y024786D02*
X016820Y024939D01*
X017064Y023946D02*
X017064Y023425D01*
X016804Y023425D01*
X016717Y023512D01*
X016717Y023686D01*
X016804Y023772D01*
X017064Y023772D01*
X017233Y023686D02*
X017407Y023686D01*
X017233Y023686D02*
X017233Y023859D01*
X017320Y023946D01*
X017493Y023946D01*
X017580Y023859D01*
X017580Y023512D01*
X017493Y023425D01*
X017320Y023425D01*
X017233Y023512D01*
X016549Y023425D02*
X016375Y023425D01*
X016462Y023425D02*
X016462Y023946D01*
X016549Y023946D02*
X016375Y023946D01*
X016205Y023859D02*
X016118Y023946D01*
X015945Y023946D01*
X015858Y023859D01*
X015858Y023512D01*
X015945Y023425D01*
X016118Y023425D01*
X016205Y023512D01*
X016205Y023859D01*
X015689Y023946D02*
X015342Y023946D01*
X015516Y023946D02*
X015516Y023425D01*
X015689Y023599D01*
X014973Y025186D02*
X014820Y025339D01*
X014050Y025630D02*
X014050Y025707D01*
X013896Y025783D02*
X013820Y025707D01*
X013820Y025553D01*
X013896Y025476D01*
X013280Y025446D02*
X012820Y025446D01*
X013280Y025753D01*
X012820Y025753D01*
X012820Y025907D02*
X012820Y026137D01*
X012896Y026213D01*
X013203Y026213D01*
X013280Y026137D01*
X013280Y025907D01*
X012820Y025907D01*
X012280Y025953D02*
X012280Y026107D01*
X012203Y026183D01*
X012127Y026183D01*
X012050Y026107D01*
X012050Y026030D01*
X012050Y026107D02*
X011973Y026183D01*
X011896Y026183D01*
X011820Y026107D01*
X011820Y025953D01*
X011896Y025876D01*
X012203Y025876D02*
X012280Y025953D01*
X012280Y025723D02*
X012203Y025723D01*
X012203Y025646D01*
X012280Y025646D01*
X012280Y025723D01*
X012203Y025493D02*
X012280Y025416D01*
X012280Y025262D01*
X012203Y025186D01*
X012050Y025339D02*
X012050Y025416D01*
X012127Y025493D01*
X012203Y025493D01*
X012050Y025416D02*
X011973Y025493D01*
X011896Y025493D01*
X011820Y025416D01*
X011820Y025262D01*
X011896Y025186D01*
X011280Y025262D02*
X011203Y025186D01*
X011280Y025262D02*
X011280Y025416D01*
X011203Y025493D01*
X011127Y025493D01*
X011050Y025416D01*
X011050Y025339D01*
X011050Y025416D02*
X010973Y025493D01*
X010896Y025493D01*
X010820Y025416D01*
X010820Y025262D01*
X010896Y025186D01*
X011203Y025646D02*
X011203Y025723D01*
X011280Y025723D01*
X011280Y025646D01*
X011203Y025646D01*
X011280Y025876D02*
X010973Y026183D01*
X010896Y026183D01*
X010820Y026107D01*
X010820Y025953D01*
X010896Y025876D01*
X011280Y025876D02*
X011280Y026183D01*
X010280Y026183D02*
X010280Y025876D01*
X010280Y025723D02*
X010280Y025646D01*
X010203Y025646D01*
X010203Y025723D01*
X010280Y025723D01*
X010203Y025493D02*
X010280Y025416D01*
X010280Y025262D01*
X010203Y025186D01*
X010050Y025339D02*
X010050Y025416D01*
X010127Y025493D01*
X010203Y025493D01*
X010050Y025416D02*
X009973Y025493D01*
X009896Y025493D01*
X009820Y025416D01*
X009820Y025262D01*
X009896Y025186D01*
X009280Y025262D02*
X009203Y025186D01*
X009280Y025262D02*
X009280Y025416D01*
X009203Y025493D01*
X009127Y025493D01*
X009050Y025416D01*
X009050Y025339D01*
X009050Y025416D02*
X008973Y025493D01*
X008896Y025493D01*
X008820Y025416D01*
X008820Y025262D01*
X008896Y025186D01*
X009203Y025646D02*
X009203Y025723D01*
X009280Y025723D01*
X009280Y025646D01*
X009203Y025646D01*
X009203Y025876D02*
X008896Y025876D01*
X008820Y025953D01*
X008820Y026107D01*
X008896Y026183D01*
X009203Y025876D01*
X009280Y025953D01*
X009280Y026107D01*
X009203Y026183D01*
X008896Y026183D01*
X008280Y026090D02*
X008127Y025937D01*
X007820Y025937D01*
X007896Y025783D02*
X007973Y025783D01*
X008050Y025707D01*
X008127Y025783D01*
X008203Y025783D01*
X008280Y025707D01*
X008280Y025553D01*
X008203Y025476D01*
X008203Y025323D02*
X008280Y025323D01*
X008280Y025246D01*
X008203Y025246D01*
X008203Y025323D01*
X008203Y025093D02*
X008280Y025016D01*
X008280Y024862D01*
X008203Y024786D01*
X008050Y024939D02*
X008050Y025016D01*
X008127Y025093D01*
X008203Y025093D01*
X008050Y025016D02*
X007973Y025093D01*
X007896Y025093D01*
X007820Y025016D01*
X007820Y024862D01*
X007896Y024786D01*
X006993Y024781D02*
X006993Y024397D01*
X006686Y024397D02*
X006686Y024781D01*
X006763Y024858D01*
X006917Y024858D01*
X006993Y024781D01*
X006533Y024781D02*
X006456Y024858D01*
X006303Y024858D01*
X006226Y024781D01*
X006226Y024704D01*
X006303Y024627D01*
X006456Y024627D01*
X006533Y024551D01*
X006533Y024474D01*
X006456Y024397D01*
X006303Y024397D01*
X006226Y024474D01*
X006073Y024397D02*
X005842Y024397D01*
X005766Y024474D01*
X005766Y024551D01*
X005842Y024627D01*
X006073Y024627D01*
X006073Y024397D02*
X006073Y024858D01*
X005842Y024858D01*
X005766Y024781D01*
X005766Y024704D01*
X005842Y024627D01*
X005693Y026297D02*
X005463Y026297D01*
X005386Y026374D01*
X005386Y026681D01*
X005463Y026758D01*
X005693Y026758D01*
X005693Y026297D01*
X005233Y026374D02*
X005233Y026681D01*
X005156Y026758D01*
X005003Y026758D01*
X004926Y026681D01*
X004926Y026374D02*
X005003Y026297D01*
X005156Y026297D01*
X005233Y026374D01*
X007820Y026244D02*
X008127Y026244D01*
X008280Y026090D01*
X007896Y025783D02*
X007820Y025707D01*
X007820Y025553D01*
X007896Y025476D01*
X008050Y025630D02*
X008050Y025707D01*
X009820Y026030D02*
X010280Y026030D01*
X009973Y025876D02*
X009820Y026030D01*
X009945Y023946D02*
X009858Y023859D01*
X009858Y023512D01*
X009945Y023425D01*
X010118Y023425D01*
X010205Y023512D01*
X010205Y023859D01*
X010118Y023946D01*
X009945Y023946D01*
X009689Y023859D02*
X009603Y023946D01*
X009429Y023946D01*
X009342Y023859D01*
X009342Y023772D01*
X009429Y023686D01*
X009516Y023686D01*
X009429Y023686D02*
X009342Y023599D01*
X009342Y023512D01*
X009429Y023425D01*
X009603Y023425D01*
X009689Y023512D01*
X010375Y023425D02*
X010549Y023425D01*
X010462Y023425D02*
X010462Y023946D01*
X010549Y023946D02*
X010375Y023946D01*
X010717Y023686D02*
X010804Y023772D01*
X011064Y023772D01*
X011064Y023946D02*
X011064Y023425D01*
X010804Y023425D01*
X010717Y023512D01*
X010717Y023686D01*
X011233Y023686D02*
X011407Y023686D01*
X011233Y023686D02*
X011233Y023859D01*
X011320Y023946D01*
X011493Y023946D01*
X011580Y023859D01*
X011580Y023512D01*
X011493Y023425D01*
X011320Y023425D01*
X011233Y023512D01*
X012820Y025062D02*
X012896Y024986D01*
X013203Y024986D01*
X013280Y025062D01*
X013280Y025216D01*
X013203Y025293D01*
X013050Y025293D01*
X013050Y025139D01*
X012896Y025293D02*
X012820Y025216D01*
X012820Y025062D01*
X001680Y018381D02*
X001527Y018228D01*
X001527Y018304D02*
X001527Y018074D01*
X001680Y018074D02*
X001220Y018074D01*
X001220Y018304D01*
X001296Y018381D01*
X001450Y018381D01*
X001527Y018304D01*
X001680Y017921D02*
X001680Y017614D01*
X001220Y017614D01*
X001220Y017921D01*
X001450Y017767D02*
X001450Y017614D01*
X001680Y017460D02*
X001220Y017460D01*
X001220Y017153D02*
X001680Y017153D01*
X001527Y017307D01*
X001680Y017460D01*
X001603Y017000D02*
X001296Y017000D01*
X001220Y016923D01*
X001220Y016770D01*
X001296Y016693D01*
X001603Y016693D01*
X001680Y016770D01*
X001680Y016923D01*
X001603Y017000D01*
X001450Y016540D02*
X001527Y016463D01*
X001527Y016233D01*
X001680Y016233D02*
X001220Y016233D01*
X001220Y016463D01*
X001296Y016540D01*
X001450Y016540D01*
X001220Y014171D02*
X001220Y014171D01*
X001296Y011010D02*
X001373Y011010D01*
X001450Y010934D01*
X001450Y010703D01*
X001527Y010550D02*
X001603Y010550D01*
X001680Y010473D01*
X001680Y010320D01*
X001603Y010243D01*
X001603Y010090D02*
X001220Y010090D01*
X001296Y010243D02*
X001373Y010243D01*
X001450Y010320D01*
X001450Y010473D01*
X001527Y010550D01*
X001680Y010703D02*
X001220Y010703D01*
X001220Y010934D01*
X001296Y011010D01*
X001450Y010934D02*
X001527Y011010D01*
X001603Y011010D01*
X001680Y010934D01*
X001680Y010703D01*
X001296Y010550D02*
X001220Y010473D01*
X001220Y010320D01*
X001296Y010243D01*
X001603Y010090D02*
X001680Y010013D01*
X001680Y009859D01*
X001603Y009783D01*
X001220Y009783D01*
X001296Y009020D02*
X001450Y009020D01*
X001527Y008944D01*
X001527Y008714D01*
X001527Y008867D02*
X001680Y009020D01*
X001680Y008714D02*
X001220Y008714D01*
X001220Y008944D01*
X001296Y009020D01*
X001220Y008560D02*
X001220Y008253D01*
X001680Y008253D01*
X001680Y008560D01*
X001450Y008407D02*
X001450Y008253D01*
X001603Y008100D02*
X001296Y008100D01*
X001220Y008023D01*
X001220Y007793D01*
X001680Y007793D01*
X001680Y008023D01*
X001603Y008100D01*
X001680Y007639D02*
X001373Y007639D01*
X001220Y007486D01*
X001373Y007332D01*
X001680Y007332D01*
X001603Y007179D02*
X001296Y007179D01*
X001220Y007102D01*
X001220Y006949D01*
X001296Y006872D01*
X001603Y006872D01*
X001680Y006949D01*
X001680Y007102D01*
X001603Y007179D01*
X001450Y007332D02*
X001450Y007639D01*
X001680Y006718D02*
X001680Y006412D01*
X001220Y006412D01*
X001220Y006258D02*
X001220Y005951D01*
X001220Y006105D02*
X001680Y006105D01*
X001603Y005798D02*
X001296Y005798D01*
X001220Y005721D01*
X001220Y005568D01*
X001296Y005491D01*
X001603Y005491D01*
X001680Y005568D01*
X001680Y005721D01*
X001603Y005798D01*
X001603Y005337D02*
X001296Y005337D01*
X001220Y005261D01*
X001220Y005107D01*
X001296Y005030D01*
X001603Y005030D01*
X001680Y005107D01*
X001680Y005261D01*
X001603Y005337D01*
X001603Y004877D02*
X001527Y004877D01*
X001450Y004800D01*
X001450Y004570D01*
X001680Y004570D02*
X001220Y004570D01*
X001220Y004800D01*
X001296Y004877D01*
X001373Y004877D01*
X001450Y004800D01*
X001603Y004877D02*
X001680Y004800D01*
X001680Y004570D01*
X007820Y003521D02*
X007820Y003368D01*
X007896Y003291D01*
X007973Y003291D01*
X008050Y003368D01*
X008050Y003521D01*
X008127Y003598D01*
X008203Y003598D01*
X008280Y003521D01*
X008280Y003368D01*
X008203Y003291D01*
X007820Y003137D02*
X007820Y002830D01*
X007820Y002984D02*
X008280Y002984D01*
X008280Y002677D02*
X008127Y002523D01*
X008127Y002600D02*
X008127Y002370D01*
X008280Y002370D02*
X007820Y002370D01*
X007820Y002600D01*
X007896Y002677D01*
X008050Y002677D01*
X008127Y002600D01*
X008820Y002600D02*
X008820Y002370D01*
X009280Y002370D01*
X009127Y002370D02*
X009127Y002600D01*
X009050Y002677D01*
X008896Y002677D01*
X008820Y002600D01*
X008820Y002830D02*
X009280Y003137D01*
X009280Y003291D02*
X008820Y003291D01*
X008820Y003521D01*
X008896Y003598D01*
X009203Y003598D01*
X009280Y003521D01*
X009280Y003291D01*
X009280Y002830D02*
X008820Y003137D01*
X009280Y002677D02*
X009127Y002523D01*
X009820Y002523D02*
X010280Y002523D01*
X010280Y002830D02*
X009820Y003137D01*
X009820Y003291D02*
X009820Y003521D01*
X009896Y003598D01*
X010203Y003598D01*
X010280Y003521D01*
X010280Y003291D01*
X009820Y003291D01*
X009820Y002830D02*
X010280Y003137D01*
X010820Y003137D02*
X010820Y002830D01*
X010820Y002984D02*
X011280Y002984D01*
X011203Y002677D02*
X010896Y002677D01*
X010820Y002600D01*
X010820Y002370D01*
X011280Y002370D01*
X011280Y002600D01*
X011203Y002677D01*
X011820Y002600D02*
X011820Y002447D01*
X011896Y002370D01*
X012203Y002370D01*
X012280Y002447D01*
X012280Y002600D01*
X012203Y002677D01*
X011896Y002677D02*
X011820Y002600D01*
X011820Y002830D02*
X011820Y003137D01*
X011820Y002984D02*
X012280Y002984D01*
X012820Y003137D02*
X013280Y003137D01*
X012820Y002830D01*
X013280Y002830D01*
X013203Y002677D02*
X013050Y002677D01*
X013050Y002523D01*
X013203Y002370D02*
X013280Y002447D01*
X013280Y002600D01*
X013203Y002677D01*
X012896Y002677D02*
X012820Y002600D01*
X012820Y002447D01*
X012896Y002370D01*
X013203Y002370D01*
X013820Y002447D02*
X013896Y002370D01*
X013820Y002447D02*
X013820Y002600D01*
X013896Y002677D01*
X013973Y002677D01*
X014050Y002600D01*
X014127Y002677D01*
X014203Y002677D01*
X014280Y002600D01*
X014280Y002447D01*
X014203Y002370D01*
X014050Y002523D02*
X014050Y002600D01*
X014203Y002830D02*
X014203Y002907D01*
X014280Y002907D01*
X014280Y002830D01*
X014203Y002830D01*
X014203Y003061D02*
X014280Y003137D01*
X014280Y003291D01*
X014203Y003368D01*
X014127Y003368D01*
X014050Y003291D01*
X014050Y003214D01*
X014050Y003291D02*
X013973Y003368D01*
X013896Y003368D01*
X013820Y003291D01*
X013820Y003137D01*
X013896Y003061D01*
X013820Y003521D02*
X014127Y003521D01*
X014280Y003674D01*
X014127Y003828D01*
X013820Y003828D01*
X013280Y003521D02*
X013203Y003598D01*
X012896Y003598D01*
X012820Y003521D01*
X012820Y003291D01*
X013280Y003291D01*
X013280Y003521D01*
X012280Y003521D02*
X012280Y003368D01*
X012203Y003291D01*
X012050Y003368D02*
X012050Y003521D01*
X012127Y003598D01*
X012203Y003598D01*
X012280Y003521D01*
X012050Y003368D02*
X011973Y003291D01*
X011896Y003291D01*
X011820Y003368D01*
X011820Y003521D01*
X011896Y003598D01*
X011280Y003598D02*
X011127Y003444D01*
X011127Y003521D02*
X011127Y003291D01*
X011280Y003291D02*
X010820Y003291D01*
X010820Y003521D01*
X010896Y003598D01*
X011050Y003598D01*
X011127Y003521D01*
X011160Y004610D02*
X011160Y005130D01*
X011502Y005130D02*
X011675Y004957D01*
X011588Y004957D02*
X011849Y004957D01*
X011849Y005130D02*
X011849Y004610D01*
X011588Y004610D01*
X011502Y004696D01*
X011502Y004870D01*
X011588Y004957D01*
X011333Y004610D02*
X010986Y004610D01*
X010817Y004783D02*
X010644Y004610D01*
X010474Y004696D02*
X010387Y004610D01*
X010213Y004610D01*
X010127Y004696D01*
X010127Y004783D01*
X010213Y004870D01*
X010127Y004957D01*
X010127Y005043D01*
X010213Y005130D01*
X010387Y005130D01*
X010474Y005043D01*
X010644Y005130D02*
X010817Y004957D01*
X010817Y004783D01*
X010300Y004870D02*
X010213Y004870D01*
X009958Y005043D02*
X009871Y005043D01*
X009871Y005130D01*
X009958Y005130D01*
X009958Y005043D01*
X009700Y005043D02*
X009613Y005130D01*
X009440Y005130D01*
X009353Y005043D01*
X009353Y004957D01*
X009440Y004870D01*
X009527Y004870D01*
X009440Y004870D02*
X009353Y004783D01*
X009353Y004696D01*
X009440Y004610D01*
X009613Y004610D01*
X009700Y004696D01*
X009185Y004610D02*
X009185Y004957D01*
X009011Y005130D01*
X008838Y004957D01*
X008838Y004610D01*
X008669Y004610D02*
X008495Y004783D01*
X008495Y004957D01*
X008669Y005130D01*
X007896Y003598D02*
X007820Y003521D01*
X009820Y002677D02*
X009820Y002370D01*
X012191Y004610D02*
X012017Y004783D01*
X012017Y005130D01*
X012017Y004870D02*
X012364Y004870D01*
X012364Y004783D02*
X012191Y004610D01*
X012364Y004783D02*
X012364Y005130D01*
X012533Y005043D02*
X012620Y005130D01*
X012793Y005130D01*
X012880Y005043D01*
X012880Y004610D01*
X012533Y004610D02*
X012533Y005043D01*
X014820Y003214D02*
X015280Y003214D01*
X015280Y003061D02*
X015280Y003368D01*
X014973Y003061D02*
X014820Y003214D01*
X015203Y002907D02*
X015280Y002907D01*
X015280Y002830D01*
X015203Y002830D01*
X015203Y002907D01*
X015280Y002677D02*
X015280Y002370D01*
X014973Y002677D01*
X014896Y002677D01*
X014820Y002600D01*
X014820Y002447D01*
X014896Y002370D01*
X015820Y002447D02*
X015896Y002370D01*
X015820Y002447D02*
X015820Y002600D01*
X015896Y002677D01*
X015973Y002677D01*
X016280Y002370D01*
X016280Y002677D01*
X016280Y002830D02*
X016280Y002907D01*
X016203Y002907D01*
X016203Y002830D01*
X016280Y002830D01*
X016280Y003061D02*
X015973Y003368D01*
X015896Y003368D01*
X015820Y003291D01*
X015820Y003137D01*
X015896Y003061D01*
X016280Y003061D02*
X016280Y003368D01*
X016820Y003291D02*
X016820Y003137D01*
X016896Y003061D01*
X017050Y003214D02*
X017050Y003291D01*
X017127Y003368D01*
X017203Y003368D01*
X017280Y003291D01*
X017280Y003137D01*
X017203Y003061D01*
X017203Y002907D02*
X017280Y002907D01*
X017280Y002830D01*
X017203Y002830D01*
X017203Y002907D01*
X017280Y002677D02*
X017280Y002370D01*
X016973Y002677D01*
X016896Y002677D01*
X016820Y002600D01*
X016820Y002447D01*
X016896Y002370D01*
X017820Y002447D02*
X017896Y002370D01*
X017820Y002447D02*
X017820Y002600D01*
X017896Y002677D01*
X017973Y002677D01*
X018280Y002370D01*
X018280Y002677D01*
X018280Y002830D02*
X018280Y002907D01*
X018203Y002907D01*
X018203Y002830D01*
X018280Y002830D01*
X018050Y003061D02*
X018050Y003368D01*
X018280Y003291D02*
X017820Y003291D01*
X018050Y003061D01*
X018820Y003061D02*
X019050Y003061D01*
X018973Y003214D01*
X018973Y003291D01*
X019050Y003368D01*
X019203Y003368D01*
X019280Y003291D01*
X019280Y003137D01*
X019203Y003061D01*
X019203Y002907D02*
X019280Y002907D01*
X019280Y002830D01*
X019203Y002830D01*
X019203Y002907D01*
X019280Y002677D02*
X019280Y002370D01*
X018973Y002677D01*
X018896Y002677D01*
X018820Y002600D01*
X018820Y002447D01*
X018896Y002370D01*
X019820Y002447D02*
X019896Y002370D01*
X019820Y002447D02*
X019820Y002600D01*
X019896Y002677D01*
X019973Y002677D01*
X020280Y002370D01*
X020280Y002677D01*
X020280Y002830D02*
X020280Y002907D01*
X020203Y002907D01*
X020203Y002830D01*
X020280Y002830D01*
X020203Y003061D02*
X020280Y003137D01*
X020280Y003291D01*
X020203Y003368D01*
X020127Y003368D01*
X020050Y003291D01*
X020050Y003061D01*
X020203Y003061D01*
X020050Y003061D02*
X019896Y003214D01*
X019820Y003368D01*
X018820Y003368D02*
X018820Y003061D01*
X018718Y004610D02*
X018805Y004696D01*
X018805Y005043D01*
X018718Y005130D01*
X018545Y005130D01*
X018458Y005043D01*
X018458Y004696D01*
X018545Y004610D01*
X018718Y004610D01*
X018975Y004610D02*
X019149Y004610D01*
X019062Y004610D02*
X019062Y005130D01*
X019149Y005130D02*
X018975Y005130D01*
X019317Y004870D02*
X019404Y004957D01*
X019664Y004957D01*
X019664Y005130D02*
X019664Y004610D01*
X019404Y004610D01*
X019317Y004696D01*
X019317Y004870D01*
X019833Y004870D02*
X020007Y004870D01*
X019833Y004870D02*
X019833Y005043D01*
X019920Y005130D01*
X020093Y005130D01*
X020180Y005043D01*
X020180Y004696D01*
X020093Y004610D01*
X019920Y004610D01*
X019833Y004696D01*
X018289Y004696D02*
X018203Y004610D01*
X018029Y004610D01*
X017942Y004696D01*
X017942Y004783D01*
X018289Y005130D01*
X017942Y005130D01*
X016973Y003368D02*
X017050Y003291D01*
X016973Y003368D02*
X016896Y003368D01*
X016820Y003291D01*
X020820Y003368D02*
X020820Y003061D01*
X020820Y003368D02*
X020896Y003368D01*
X021203Y003061D01*
X021280Y003061D01*
X021280Y002907D02*
X021280Y002830D01*
X021203Y002830D01*
X021203Y002907D01*
X021280Y002907D01*
X021280Y002677D02*
X021280Y002370D01*
X020973Y002677D01*
X020896Y002677D01*
X020820Y002600D01*
X020820Y002447D01*
X020896Y002370D01*
X021820Y002447D02*
X021896Y002370D01*
X021820Y002447D02*
X021820Y002600D01*
X021896Y002677D01*
X021973Y002677D01*
X022280Y002370D01*
X022280Y002677D01*
X022280Y002830D02*
X022280Y002907D01*
X022203Y002907D01*
X022203Y002830D01*
X022280Y002830D01*
X022203Y003061D02*
X022127Y003061D01*
X022050Y003137D01*
X022050Y003291D01*
X022127Y003368D01*
X022203Y003368D01*
X022280Y003291D01*
X022280Y003137D01*
X022203Y003061D01*
X022050Y003137D02*
X021973Y003061D01*
X021896Y003061D01*
X021820Y003137D01*
X021820Y003291D01*
X021896Y003368D01*
X021973Y003368D01*
X022050Y003291D01*
X022820Y003291D02*
X022820Y003137D01*
X022896Y003061D01*
X022973Y003061D01*
X023050Y003137D01*
X023050Y003368D01*
X023203Y003368D02*
X022896Y003368D01*
X022820Y003291D01*
X023203Y003368D02*
X023280Y003291D01*
X023280Y003137D01*
X023203Y003061D01*
X023203Y002907D02*
X023280Y002907D01*
X023280Y002830D01*
X023203Y002830D01*
X023203Y002907D01*
X023280Y002677D02*
X023280Y002370D01*
X022973Y002677D01*
X022896Y002677D01*
X022820Y002600D01*
X022820Y002447D01*
X022896Y002370D01*
X023820Y002447D02*
X023896Y002370D01*
X024203Y002370D01*
X024280Y002447D01*
X024280Y002600D01*
X024203Y002677D01*
X024050Y002677D01*
X024050Y002523D01*
X023896Y002677D02*
X023820Y002600D01*
X023820Y002447D01*
X023820Y002830D02*
X024280Y003137D01*
X023820Y003137D01*
X023820Y003291D02*
X023820Y003521D01*
X023896Y003598D01*
X024203Y003598D01*
X024280Y003521D01*
X024280Y003291D01*
X023820Y003291D01*
X023820Y002830D02*
X024280Y002830D01*
X024820Y002600D02*
X024896Y002677D01*
X024973Y002677D01*
X025050Y002600D01*
X025127Y002677D01*
X025203Y002677D01*
X025280Y002600D01*
X025280Y002447D01*
X025203Y002370D01*
X025050Y002523D02*
X025050Y002600D01*
X024820Y002600D02*
X024820Y002447D01*
X024896Y002370D01*
X025203Y002830D02*
X025203Y002907D01*
X025280Y002907D01*
X025280Y002830D01*
X025203Y002830D01*
X025203Y003061D02*
X025280Y003137D01*
X025280Y003291D01*
X025203Y003368D01*
X025127Y003368D01*
X025050Y003291D01*
X025050Y003214D01*
X025050Y003291D02*
X024973Y003368D01*
X024896Y003368D01*
X024820Y003291D01*
X024820Y003137D01*
X024896Y003061D01*
X024820Y003521D02*
X025127Y003521D01*
X025280Y003674D01*
X025127Y003828D01*
X024820Y003828D01*
X025820Y003291D02*
X026280Y003291D01*
X026280Y003598D01*
X026203Y003137D02*
X026280Y003061D01*
X026280Y002907D01*
X026203Y002830D01*
X025896Y002830D01*
X025820Y002907D01*
X025820Y003061D01*
X025896Y003137D01*
X025896Y002677D02*
X025820Y002600D01*
X025820Y002447D01*
X025896Y002370D01*
X025973Y002370D01*
X026050Y002447D01*
X026050Y002600D01*
X026127Y002677D01*
X026203Y002677D01*
X026280Y002600D01*
X026280Y002447D01*
X026203Y002370D01*
X026820Y002447D02*
X026896Y002370D01*
X026973Y002370D01*
X027050Y002447D01*
X027050Y002600D01*
X027127Y002677D01*
X027203Y002677D01*
X027280Y002600D01*
X027280Y002447D01*
X027203Y002370D01*
X026820Y002447D02*
X026820Y002600D01*
X026896Y002677D01*
X026820Y002830D02*
X026820Y003061D01*
X026896Y003137D01*
X027203Y003137D01*
X027280Y003061D01*
X027280Y002830D01*
X026820Y002830D01*
X026973Y003291D02*
X026820Y003444D01*
X026973Y003598D01*
X027280Y003598D01*
X027050Y003598D02*
X027050Y003291D01*
X026973Y003291D02*
X027280Y003291D01*
X027820Y003291D02*
X027820Y003521D01*
X027896Y003598D01*
X028203Y003598D01*
X028280Y003521D01*
X028280Y003291D01*
X027820Y003291D01*
X027820Y003137D02*
X028280Y003137D01*
X027820Y002830D01*
X028280Y002830D01*
X028203Y002677D02*
X028050Y002677D01*
X028050Y002523D01*
X028203Y002370D02*
X028280Y002447D01*
X028280Y002600D01*
X028203Y002677D01*
X027896Y002677D02*
X027820Y002600D01*
X027820Y002447D01*
X027896Y002370D01*
X028203Y002370D01*
X028820Y002370D02*
X029050Y002370D01*
X028973Y002523D01*
X028973Y002600D01*
X029050Y002677D01*
X029203Y002677D01*
X029280Y002600D01*
X029280Y002447D01*
X029203Y002370D01*
X028820Y002370D02*
X028820Y002677D01*
X029203Y002830D02*
X029203Y002907D01*
X029280Y002907D01*
X029280Y002830D01*
X029203Y002830D01*
X029203Y003061D02*
X028896Y003061D01*
X028820Y003137D01*
X028820Y003291D01*
X028896Y003368D01*
X029203Y003061D01*
X029280Y003137D01*
X029280Y003291D01*
X029203Y003368D01*
X028896Y003368D01*
X028820Y003521D02*
X029127Y003521D01*
X029280Y003674D01*
X029127Y003828D01*
X028820Y003828D01*
X029820Y003828D02*
X030127Y003828D01*
X030280Y003674D01*
X030127Y003521D01*
X029820Y003521D01*
X029896Y003368D02*
X029820Y003291D01*
X029820Y003137D01*
X029896Y003061D01*
X030203Y003061D01*
X029896Y003368D01*
X030203Y003368D01*
X030280Y003291D01*
X030280Y003137D01*
X030203Y003061D01*
X030203Y002907D02*
X030280Y002907D01*
X030280Y002830D01*
X030203Y002830D01*
X030203Y002907D01*
X030203Y002677D02*
X030280Y002600D01*
X030280Y002447D01*
X030203Y002370D01*
X030050Y002370D02*
X029973Y002523D01*
X029973Y002600D01*
X030050Y002677D01*
X030203Y002677D01*
X030050Y002370D02*
X029820Y002370D01*
X029820Y002677D01*
X030820Y002600D02*
X030820Y002447D01*
X030896Y002370D01*
X031203Y002370D01*
X031280Y002447D01*
X031280Y002600D01*
X031203Y002677D01*
X031050Y002677D01*
X031050Y002523D01*
X030896Y002677D02*
X030820Y002600D01*
X030820Y002830D02*
X031280Y003137D01*
X030820Y003137D01*
X030820Y003291D02*
X030820Y003521D01*
X030896Y003598D01*
X031203Y003598D01*
X031280Y003521D01*
X031280Y003291D01*
X030820Y003291D01*
X030820Y002830D02*
X031280Y002830D01*
X032120Y002927D02*
X032120Y002697D01*
X032580Y002697D01*
X032580Y002927D01*
X032503Y003004D01*
X032196Y003004D01*
X032120Y002927D01*
X032120Y002544D02*
X032120Y002237D01*
X032580Y002237D01*
X032580Y002544D01*
X032350Y002390D02*
X032350Y002237D01*
X032580Y002083D02*
X032580Y001776D01*
X032120Y001776D01*
X033770Y001753D02*
X033846Y001676D01*
X033770Y001753D02*
X033770Y001906D01*
X033846Y001983D01*
X033923Y001983D01*
X034230Y001676D01*
X034230Y001983D01*
X034230Y002137D02*
X034230Y002213D01*
X034153Y002213D01*
X034153Y002137D01*
X034230Y002137D01*
X034230Y002367D02*
X034230Y002674D01*
X034230Y002520D02*
X033770Y002520D01*
X033923Y002367D01*
X033846Y002827D02*
X033770Y002904D01*
X033770Y003057D01*
X033846Y003134D01*
X034153Y002827D01*
X034230Y002904D01*
X034230Y003057D01*
X034153Y003134D01*
X033846Y003134D01*
X033846Y002827D02*
X034153Y002827D01*
X030980Y004610D02*
X030980Y004870D01*
X030807Y004783D01*
X030720Y004783D01*
X030633Y004870D01*
X030633Y005043D01*
X030720Y005130D01*
X030893Y005130D01*
X030980Y005043D01*
X030980Y004610D02*
X030633Y004610D01*
X030464Y005043D02*
X030378Y005043D01*
X030378Y005130D01*
X030464Y005130D01*
X030464Y005043D01*
X030207Y005043D02*
X029860Y004696D01*
X029860Y005043D01*
X029946Y005130D01*
X030120Y005130D01*
X030207Y005043D01*
X030207Y004696D01*
X030120Y004610D01*
X029946Y004610D01*
X029860Y004696D01*
X029691Y004610D02*
X029691Y004957D01*
X029517Y005130D01*
X029344Y004957D01*
X029344Y004610D01*
X027180Y004610D02*
X027007Y004610D01*
X027093Y004610D02*
X027093Y005130D01*
X027007Y005130D02*
X027180Y005130D01*
X026836Y005130D02*
X026489Y004783D01*
X026489Y004696D01*
X026576Y004610D01*
X026750Y004610D01*
X026836Y004696D01*
X026836Y005130D02*
X026489Y005130D01*
X026321Y005043D02*
X026234Y005130D01*
X026060Y005130D01*
X025974Y005043D01*
X026321Y005043D02*
X026321Y004696D01*
X026234Y004610D01*
X026060Y004610D01*
X025974Y004696D01*
X018830Y007831D02*
X018830Y008138D01*
X018830Y008291D02*
X018523Y008598D01*
X018446Y008598D01*
X018369Y008521D01*
X018369Y008368D01*
X018446Y008291D01*
X018369Y007984D02*
X018830Y007984D01*
X018830Y008291D02*
X018830Y008598D01*
X018830Y008751D02*
X018369Y008751D01*
X018523Y008905D01*
X018369Y009058D01*
X018830Y009058D01*
X018830Y009212D02*
X018369Y009212D01*
X018599Y009212D02*
X018599Y009519D01*
X018523Y009672D02*
X018523Y009979D01*
X018830Y009672D01*
X018830Y009979D01*
X018830Y009519D02*
X018369Y009519D01*
X018369Y007984D02*
X018523Y007831D01*
X032920Y012962D02*
X032996Y012886D01*
X033073Y012886D01*
X033150Y012962D01*
X033150Y013116D01*
X033227Y013193D01*
X033303Y013193D01*
X033380Y013116D01*
X033380Y012962D01*
X033303Y012886D01*
X032920Y012962D02*
X032920Y013116D01*
X032996Y013193D01*
X032920Y013346D02*
X033380Y013346D01*
X033227Y013500D01*
X033380Y013653D01*
X032920Y013653D01*
X032920Y013807D02*
X032920Y014037D01*
X032996Y014113D01*
X033303Y014113D01*
X033380Y014037D01*
X033380Y013807D01*
X032920Y013807D01*
X033296Y021586D02*
X033373Y021586D01*
X033450Y021662D01*
X033450Y021816D01*
X033527Y021893D01*
X033603Y021893D01*
X033680Y021816D01*
X033680Y021662D01*
X033603Y021586D01*
X033296Y021586D02*
X033220Y021662D01*
X033220Y021816D01*
X033296Y021893D01*
X033220Y022046D02*
X033680Y022046D01*
X033527Y022200D01*
X033680Y022353D01*
X033220Y022353D01*
X033220Y022507D02*
X033220Y022737D01*
X033296Y022813D01*
X033603Y022813D01*
X033680Y022737D01*
X033680Y022507D01*
X033220Y022507D01*
X033380Y023686D02*
X032920Y023686D01*
X032920Y023993D02*
X033380Y023993D01*
X033227Y023839D01*
X033380Y023686D01*
X033380Y024146D02*
X033073Y024146D01*
X032920Y024300D01*
X033073Y024453D01*
X033380Y024453D01*
X033380Y024607D02*
X032920Y024607D01*
X033150Y024683D02*
X033380Y024913D01*
X033380Y025067D02*
X033380Y025374D01*
X033303Y025527D02*
X033380Y025604D01*
X033380Y025758D01*
X033303Y025834D01*
X032920Y025834D01*
X032920Y025988D02*
X032920Y026218D01*
X032996Y026295D01*
X033150Y026295D01*
X033227Y026218D01*
X033227Y025988D01*
X033380Y025988D02*
X032920Y025988D01*
X032920Y025527D02*
X033303Y025527D01*
X033150Y025220D02*
X033150Y025067D01*
X032920Y025067D02*
X033380Y025067D01*
X033227Y024607D02*
X032920Y024913D01*
X032920Y025067D02*
X032920Y025374D01*
X033150Y024453D02*
X033150Y024146D01*
X034123Y025286D02*
X034430Y025439D01*
X034123Y025593D01*
X034123Y025746D02*
X033970Y025900D01*
X034430Y025900D01*
X034430Y026053D02*
X034430Y025746D01*
X034430Y026207D02*
X034430Y026283D01*
X034353Y026283D01*
X034353Y026207D01*
X034430Y026207D01*
X034353Y026437D02*
X034430Y026513D01*
X034430Y026667D01*
X034353Y026744D01*
X034277Y026744D01*
X034200Y026667D01*
X034200Y026437D01*
X034353Y026437D01*
X034200Y026437D02*
X034046Y026590D01*
X033970Y026744D01*
D12*
X032576Y025596D02*
X032024Y025596D01*
X032024Y024336D01*
X032576Y024336D01*
X032576Y025596D01*
X034122Y024341D02*
X036878Y024341D01*
X036878Y020191D01*
X034122Y020191D01*
X034122Y021872D01*
X033925Y021872D01*
X033925Y022659D01*
X034122Y022659D01*
X034122Y024341D01*
X034491Y024752D02*
X034935Y024752D01*
X034983Y024800D02*
X034442Y024800D01*
X034417Y024825D02*
X034713Y024530D01*
X035008Y024825D01*
X034417Y024825D01*
X034539Y024703D02*
X034886Y024703D01*
X034838Y024655D02*
X034588Y024655D01*
X034636Y024606D02*
X034789Y024606D01*
X034741Y024558D02*
X034685Y024558D01*
X034122Y022659D02*
X034122Y021872D01*
X032225Y019879D02*
X032123Y019981D01*
X032021Y019879D01*
X032021Y019676D01*
X031920Y019574D01*
X031818Y019676D01*
X031818Y019981D01*
X032225Y019879D02*
X032225Y019574D01*
X032225Y019373D02*
X032225Y019068D01*
X032123Y018966D01*
X031920Y018966D01*
X031818Y019068D01*
X031818Y019373D01*
X032327Y019373D01*
X032429Y019271D01*
X032429Y019170D01*
X032225Y018765D02*
X031920Y018765D01*
X031818Y018664D01*
X031818Y018358D01*
X032225Y018358D01*
X032225Y018157D02*
X032225Y017953D01*
X032225Y018055D02*
X031818Y018055D01*
X031818Y017953D01*
X031920Y017753D02*
X032225Y017753D01*
X031920Y017753D02*
X031818Y017651D01*
X031818Y017447D01*
X031920Y017346D01*
X031818Y017144D02*
X031818Y016940D01*
X031716Y017042D02*
X032123Y017042D01*
X032225Y017144D01*
X032225Y017346D02*
X031614Y017346D01*
X031920Y016740D02*
X032021Y016740D01*
X032021Y016333D01*
X031920Y016333D02*
X031818Y016434D01*
X031818Y016638D01*
X031920Y016740D01*
X032225Y016638D02*
X032225Y016434D01*
X032123Y016333D01*
X031920Y016333D01*
X031818Y016131D02*
X032021Y015826D01*
X032225Y016131D01*
X032225Y015826D02*
X031614Y015826D01*
X031818Y015524D02*
X031920Y015626D01*
X032225Y015626D01*
X032225Y015320D01*
X032123Y015219D01*
X032021Y015320D01*
X032021Y015626D01*
X031818Y015524D02*
X031818Y015320D01*
X031920Y015018D02*
X032225Y015018D01*
X032225Y014814D02*
X031920Y014814D01*
X031818Y014916D01*
X031920Y015018D01*
X031920Y014814D02*
X031818Y014713D01*
X031818Y014611D01*
X032225Y014611D01*
X032021Y014410D02*
X032021Y014003D01*
X031920Y014003D02*
X031818Y014105D01*
X031818Y014308D01*
X031920Y014410D01*
X032021Y014410D01*
X032225Y014308D02*
X032225Y014105D01*
X032123Y014003D01*
X031920Y014003D01*
X031818Y013802D02*
X032123Y013802D01*
X032225Y013701D01*
X032123Y013599D01*
X032225Y013497D01*
X032123Y013395D01*
X031818Y013395D01*
X031614Y012587D02*
X032225Y012180D01*
X032123Y011371D02*
X031920Y011371D01*
X031818Y011270D01*
X031818Y011066D01*
X031920Y010964D01*
X032123Y010964D01*
X032225Y011066D01*
X032225Y011270D01*
X032123Y011371D01*
X032225Y010764D02*
X032225Y010357D01*
X031818Y010764D01*
X031716Y010764D01*
X031614Y010662D01*
X031614Y010459D01*
X031716Y010357D01*
X031614Y010053D02*
X031513Y010053D01*
X031818Y010053D02*
X032225Y010053D01*
X032225Y009952D02*
X032225Y010155D01*
X032225Y009751D02*
X031818Y009344D01*
X032225Y009344D02*
X031818Y009751D01*
X031818Y009952D02*
X031818Y010053D01*
X031970Y008832D02*
X033230Y008832D01*
X033230Y008281D01*
X031970Y008281D01*
X031970Y008832D01*
X034201Y006594D02*
X036799Y006594D01*
X036799Y004231D01*
X034201Y004231D01*
X034201Y006594D01*
X033225Y006379D02*
X032775Y006379D01*
X032775Y006229D02*
X032775Y006529D01*
X032775Y006069D02*
X032775Y005769D01*
X033225Y005769D01*
X033225Y006069D01*
X033000Y005919D02*
X033000Y005769D01*
X033075Y005609D02*
X033150Y005609D01*
X033225Y005534D01*
X033225Y005383D01*
X033150Y005308D01*
X033000Y005383D02*
X033000Y005534D01*
X033075Y005609D01*
X032850Y005609D02*
X032775Y005534D01*
X032775Y005383D01*
X032850Y005308D01*
X032925Y005308D01*
X033000Y005383D01*
X033225Y005148D02*
X033225Y004848D01*
X032775Y004848D01*
X032775Y005148D01*
X033000Y004998D02*
X033000Y004848D01*
X033000Y004688D02*
X032850Y004688D01*
X032775Y004613D01*
X032775Y004388D01*
X033225Y004388D01*
X033075Y004388D02*
X033075Y004613D01*
X033000Y004688D01*
X033075Y004538D02*
X033225Y004688D01*
X033543Y003985D02*
X032283Y003985D01*
X032283Y003434D01*
X033543Y003434D01*
X033543Y003985D01*
X033526Y003014D02*
X033565Y003014D01*
X033565Y001598D01*
X033476Y001598D01*
X032935Y001598D01*
X032935Y003014D01*
X033524Y003014D01*
X033407Y002385D02*
X033250Y002385D01*
X033407Y002228D01*
X033093Y002228D01*
X033250Y002385D01*
X033093Y002385D01*
X033476Y001598D02*
X033524Y001598D01*
X035106Y005413D02*
X035108Y005452D01*
X035114Y005491D01*
X035124Y005529D01*
X035137Y005566D01*
X035154Y005601D01*
X035174Y005635D01*
X035198Y005666D01*
X035225Y005695D01*
X035254Y005721D01*
X035286Y005744D01*
X035320Y005764D01*
X035356Y005780D01*
X035393Y005792D01*
X035432Y005801D01*
X035471Y005806D01*
X035510Y005807D01*
X035549Y005804D01*
X035588Y005797D01*
X035625Y005786D01*
X035662Y005772D01*
X035697Y005754D01*
X035730Y005733D01*
X035761Y005708D01*
X035789Y005681D01*
X035814Y005651D01*
X035836Y005618D01*
X035855Y005584D01*
X035870Y005548D01*
X035882Y005510D01*
X035890Y005472D01*
X035894Y005433D01*
X035894Y005393D01*
X035890Y005354D01*
X035882Y005316D01*
X035870Y005278D01*
X035855Y005242D01*
X035836Y005208D01*
X035814Y005175D01*
X035789Y005145D01*
X035761Y005118D01*
X035730Y005093D01*
X035697Y005072D01*
X035662Y005054D01*
X035625Y005040D01*
X035588Y005029D01*
X035549Y005022D01*
X035510Y005019D01*
X035471Y005020D01*
X035432Y005025D01*
X035393Y005034D01*
X035356Y005046D01*
X035320Y005062D01*
X035286Y005082D01*
X035254Y005105D01*
X035225Y005131D01*
X035198Y005160D01*
X035174Y005191D01*
X035154Y005225D01*
X035137Y005260D01*
X035124Y005297D01*
X035114Y005335D01*
X035108Y005374D01*
X035106Y005413D01*
X034908Y005413D02*
X034910Y005461D01*
X034916Y005509D01*
X034926Y005556D01*
X034939Y005603D01*
X034957Y005648D01*
X034978Y005691D01*
X035002Y005733D01*
X035030Y005773D01*
X035061Y005810D01*
X035094Y005844D01*
X035131Y005876D01*
X035170Y005904D01*
X035211Y005930D01*
X035254Y005952D01*
X035299Y005970D01*
X035345Y005984D01*
X035392Y005995D01*
X035440Y006002D01*
X035488Y006005D01*
X035536Y006004D01*
X035584Y005999D01*
X035632Y005990D01*
X035678Y005977D01*
X035724Y005961D01*
X035768Y005941D01*
X035810Y005917D01*
X035850Y005891D01*
X035888Y005860D01*
X035923Y005827D01*
X035955Y005791D01*
X035985Y005753D01*
X036011Y005712D01*
X036033Y005670D01*
X036053Y005626D01*
X036068Y005580D01*
X036080Y005533D01*
X036088Y005485D01*
X036092Y005437D01*
X036092Y005389D01*
X036088Y005341D01*
X036080Y005293D01*
X036068Y005246D01*
X036053Y005200D01*
X036033Y005156D01*
X036011Y005114D01*
X035985Y005073D01*
X035955Y005035D01*
X035923Y004999D01*
X035888Y004966D01*
X035850Y004935D01*
X035810Y004909D01*
X035768Y004885D01*
X035724Y004865D01*
X035678Y004849D01*
X035632Y004836D01*
X035584Y004827D01*
X035536Y004822D01*
X035488Y004821D01*
X035440Y004824D01*
X035392Y004831D01*
X035345Y004842D01*
X035299Y004856D01*
X035254Y004874D01*
X035211Y004896D01*
X035170Y004922D01*
X035131Y004950D01*
X035094Y004982D01*
X035061Y005016D01*
X035030Y005053D01*
X035002Y005093D01*
X034978Y005135D01*
X034957Y005178D01*
X034939Y005223D01*
X034926Y005270D01*
X034916Y005317D01*
X034910Y005365D01*
X034908Y005413D01*
X030705Y005656D02*
X028695Y005656D01*
X028695Y005696D01*
X028695Y005704D02*
X028695Y006444D01*
X030705Y006444D01*
X030705Y005679D01*
X030705Y005656D01*
X030705Y005679D02*
X030705Y005721D01*
X029775Y005875D02*
X029625Y006050D01*
X029775Y006225D01*
X029775Y005875D01*
X029625Y005875D02*
X029625Y006225D01*
X026030Y006326D02*
X026030Y005774D01*
X024770Y005774D01*
X024770Y006326D01*
X026030Y006326D01*
X026030Y007681D02*
X024770Y007681D01*
X024770Y008232D01*
X026030Y008232D01*
X026030Y007681D01*
X026030Y008887D02*
X024770Y008887D01*
X024770Y009438D01*
X026030Y009438D01*
X026030Y008887D01*
X022154Y011257D02*
X022154Y012674D01*
X021446Y012674D01*
X021446Y011257D01*
X022154Y011257D01*
X021226Y008089D02*
X020674Y008089D01*
X020674Y006830D01*
X021226Y006830D01*
X021226Y008089D01*
X019683Y008078D02*
X019683Y006819D01*
X019132Y006819D01*
X019132Y008078D01*
X019683Y008078D01*
X018292Y011326D02*
X017583Y011326D01*
X017583Y012743D01*
X018292Y012743D01*
X018292Y011326D01*
X012601Y011824D02*
X012601Y010564D01*
X012050Y010564D01*
X012050Y011824D01*
X012601Y011824D01*
X011245Y011824D02*
X010694Y011824D01*
X010694Y010564D01*
X011245Y010564D01*
X011245Y011824D01*
X011030Y012990D02*
X009770Y012990D01*
X009770Y013541D01*
X011030Y013541D01*
X011030Y012990D01*
X011030Y013890D02*
X009770Y013890D01*
X009770Y014441D01*
X011030Y014441D01*
X011030Y013890D01*
X011030Y015390D02*
X009770Y015390D01*
X009770Y015941D01*
X011030Y015941D01*
X011030Y015390D01*
X008976Y015896D02*
X008976Y014636D01*
X008424Y014636D01*
X008424Y015896D01*
X008976Y015896D01*
X007992Y017036D02*
X004998Y017036D01*
X004998Y017117D01*
X004998Y018296D01*
X007992Y018296D01*
X007992Y018117D01*
X007992Y017036D01*
X006700Y017366D02*
X006700Y017666D01*
X006700Y017966D01*
X006400Y017966D02*
X006700Y017666D01*
X006400Y017366D01*
X006400Y017966D01*
X004998Y017140D02*
X004998Y017117D01*
X005806Y016471D02*
X005806Y014461D01*
X006546Y014461D01*
X006554Y014461D02*
X006594Y014461D01*
X006594Y016471D01*
X006571Y016471D01*
X005806Y016471D01*
X006529Y016471D02*
X006571Y016471D01*
X006375Y015541D02*
X006025Y015541D01*
X006200Y015391D01*
X006375Y015541D01*
X006375Y015391D02*
X006025Y015391D01*
X004411Y015022D02*
X004411Y014589D01*
X003427Y015298D02*
X002364Y015298D01*
X002626Y016555D02*
X002085Y016555D01*
X002085Y017971D01*
X002674Y017971D01*
X002676Y017971D02*
X002715Y017971D01*
X002715Y016555D01*
X002626Y016555D01*
X002674Y016555D01*
X003024Y016633D02*
X003024Y017893D01*
X003576Y017893D01*
X003576Y016633D01*
X003024Y016633D01*
X002557Y017184D02*
X002243Y017184D01*
X002400Y017341D01*
X002557Y017184D01*
X002557Y017341D02*
X002400Y017341D01*
X002243Y017341D01*
X001987Y019494D02*
X001075Y019494D01*
X001036Y019496D01*
X000998Y019502D01*
X000961Y019511D01*
X000924Y019524D01*
X000889Y019541D01*
X000856Y019560D01*
X000825Y019583D01*
X000796Y019609D01*
X000770Y019638D01*
X000747Y019669D01*
X000728Y019702D01*
X000711Y019737D01*
X000698Y019774D01*
X000689Y019811D01*
X000683Y019849D01*
X000681Y019888D01*
X000681Y022644D01*
X000683Y022683D01*
X000689Y022721D01*
X000698Y022758D01*
X000711Y022795D01*
X000728Y022830D01*
X000747Y022863D01*
X000770Y022894D01*
X000796Y022923D01*
X000825Y022949D01*
X000856Y022972D01*
X000889Y022991D01*
X000924Y023008D01*
X000961Y023021D01*
X000998Y023030D01*
X001036Y023036D01*
X001075Y023038D01*
X001075Y023037D02*
X001993Y023037D01*
X003275Y023037D02*
X004493Y023037D01*
X005775Y023037D02*
X006193Y023037D01*
X006193Y020678D01*
X006687Y020678D01*
X006687Y019494D01*
X005775Y019494D01*
X004487Y019494D02*
X003275Y019494D01*
X006621Y021191D02*
X006697Y021041D01*
X006847Y020891D01*
X006847Y021116D01*
X006922Y021191D01*
X006997Y021191D01*
X007072Y021116D01*
X007072Y020966D01*
X006997Y020891D01*
X006847Y020891D01*
X006847Y021351D02*
X006847Y021651D01*
X006772Y021812D02*
X006621Y021962D01*
X007072Y021962D01*
X007072Y021812D02*
X007072Y022112D01*
X007072Y022272D02*
X006772Y022572D01*
X006697Y022572D01*
X006621Y022497D01*
X006621Y022347D01*
X006697Y022272D01*
X007072Y022272D02*
X007072Y022572D01*
X006922Y022732D02*
X006621Y022732D01*
X006922Y022732D02*
X007072Y022882D01*
X006922Y023033D01*
X006621Y023033D01*
X007770Y022841D02*
X007770Y022290D01*
X009030Y022290D01*
X009030Y022841D01*
X007770Y022841D01*
X007554Y021171D02*
X008294Y021171D01*
X008294Y019161D01*
X007529Y019161D01*
X007506Y019161D01*
X007506Y021171D01*
X007546Y021171D01*
X007725Y020241D02*
X008075Y020241D01*
X008075Y020091D02*
X007900Y020241D01*
X007725Y020091D01*
X008075Y020091D01*
X007571Y019161D02*
X007529Y019161D01*
X007992Y018215D02*
X007992Y018117D01*
X008524Y013496D02*
X009076Y013496D01*
X009076Y012236D01*
X008524Y012236D01*
X008524Y013496D01*
X004411Y012936D02*
X004411Y012503D01*
X003427Y012227D02*
X002364Y012227D01*
X002085Y011071D02*
X002674Y011071D01*
X002676Y011071D02*
X002715Y011071D01*
X002715Y009655D01*
X002626Y009655D01*
X002085Y009655D01*
X002085Y011071D01*
X003024Y010993D02*
X003576Y010993D01*
X003576Y009733D01*
X003024Y009733D01*
X003024Y010993D01*
X002557Y010441D02*
X002400Y010441D01*
X002557Y010284D01*
X002243Y010284D01*
X002400Y010441D01*
X002243Y010441D01*
X002626Y009655D02*
X002674Y009655D01*
X002119Y008049D02*
X004481Y008049D01*
X004481Y005451D01*
X002119Y005451D01*
X002119Y008049D01*
X002906Y006750D02*
X002908Y006789D01*
X002914Y006828D01*
X002924Y006866D01*
X002937Y006903D01*
X002954Y006938D01*
X002974Y006972D01*
X002998Y007003D01*
X003025Y007032D01*
X003054Y007058D01*
X003086Y007081D01*
X003120Y007101D01*
X003156Y007117D01*
X003193Y007129D01*
X003232Y007138D01*
X003271Y007143D01*
X003310Y007144D01*
X003349Y007141D01*
X003388Y007134D01*
X003425Y007123D01*
X003462Y007109D01*
X003497Y007091D01*
X003530Y007070D01*
X003561Y007045D01*
X003589Y007018D01*
X003614Y006988D01*
X003636Y006955D01*
X003655Y006921D01*
X003670Y006885D01*
X003682Y006847D01*
X003690Y006809D01*
X003694Y006770D01*
X003694Y006730D01*
X003690Y006691D01*
X003682Y006653D01*
X003670Y006615D01*
X003655Y006579D01*
X003636Y006545D01*
X003614Y006512D01*
X003589Y006482D01*
X003561Y006455D01*
X003530Y006430D01*
X003497Y006409D01*
X003462Y006391D01*
X003425Y006377D01*
X003388Y006366D01*
X003349Y006359D01*
X003310Y006356D01*
X003271Y006357D01*
X003232Y006362D01*
X003193Y006371D01*
X003156Y006383D01*
X003120Y006399D01*
X003086Y006419D01*
X003054Y006442D01*
X003025Y006468D01*
X002998Y006497D01*
X002974Y006528D01*
X002954Y006562D01*
X002937Y006597D01*
X002924Y006634D01*
X002914Y006672D01*
X002908Y006711D01*
X002906Y006750D01*
X002708Y006750D02*
X002710Y006798D01*
X002716Y006846D01*
X002726Y006893D01*
X002739Y006940D01*
X002757Y006985D01*
X002778Y007028D01*
X002802Y007070D01*
X002830Y007110D01*
X002861Y007147D01*
X002894Y007181D01*
X002931Y007213D01*
X002970Y007241D01*
X003011Y007267D01*
X003054Y007289D01*
X003099Y007307D01*
X003145Y007321D01*
X003192Y007332D01*
X003240Y007339D01*
X003288Y007342D01*
X003336Y007341D01*
X003384Y007336D01*
X003432Y007327D01*
X003478Y007314D01*
X003524Y007298D01*
X003568Y007278D01*
X003610Y007254D01*
X003650Y007228D01*
X003688Y007197D01*
X003723Y007164D01*
X003755Y007128D01*
X003785Y007090D01*
X003811Y007049D01*
X003833Y007007D01*
X003853Y006963D01*
X003868Y006917D01*
X003880Y006870D01*
X003888Y006822D01*
X003892Y006774D01*
X003892Y006726D01*
X003888Y006678D01*
X003880Y006630D01*
X003868Y006583D01*
X003853Y006537D01*
X003833Y006493D01*
X003811Y006451D01*
X003785Y006410D01*
X003755Y006372D01*
X003723Y006336D01*
X003688Y006303D01*
X003650Y006272D01*
X003610Y006246D01*
X003568Y006222D01*
X003524Y006202D01*
X003478Y006186D01*
X003432Y006173D01*
X003384Y006164D01*
X003336Y006159D01*
X003288Y006158D01*
X003240Y006161D01*
X003192Y006168D01*
X003145Y006179D01*
X003099Y006193D01*
X003054Y006211D01*
X003011Y006233D01*
X002970Y006259D01*
X002931Y006287D01*
X002894Y006319D01*
X002861Y006353D01*
X002830Y006390D01*
X002802Y006430D01*
X002778Y006472D01*
X002757Y006515D01*
X002739Y006560D01*
X002726Y006607D01*
X002716Y006654D01*
X002710Y006702D01*
X002708Y006750D01*
X004928Y006689D02*
X004928Y005430D01*
X005479Y005430D01*
X005479Y006689D01*
X004928Y006689D01*
X005828Y006689D02*
X006379Y006689D01*
X006379Y005430D01*
X005828Y005430D01*
X005828Y006689D01*
X006717Y006689D02*
X007268Y006689D01*
X007268Y005430D01*
X006717Y005430D01*
X006717Y006689D01*
X008524Y008736D02*
X008524Y009996D01*
X009076Y009996D01*
X009076Y008736D01*
X008524Y008736D01*
X010506Y007861D02*
X010506Y009871D01*
X010546Y009871D01*
X010554Y009871D02*
X011294Y009871D01*
X011294Y007861D01*
X010529Y007861D01*
X010506Y007861D01*
X010529Y007861D02*
X010571Y007861D01*
X010725Y008791D02*
X010900Y008941D01*
X011075Y008791D01*
X010725Y008791D01*
X010725Y008941D02*
X011075Y008941D01*
X013870Y006226D02*
X013870Y005674D01*
X015130Y005674D01*
X015130Y006226D01*
X013870Y006226D01*
X006630Y003726D02*
X006630Y003174D01*
X005370Y003174D01*
X005370Y003726D01*
X006630Y003726D01*
X006315Y002501D02*
X005685Y002501D01*
X005685Y002462D01*
X005685Y002186D02*
X005685Y001714D01*
X005685Y001438D02*
X005685Y001399D01*
X006315Y001399D01*
X006315Y001438D01*
X006315Y001714D02*
X006315Y001793D01*
X006315Y002107D02*
X006315Y002186D01*
X006315Y002462D02*
X006315Y002501D01*
X026270Y012590D02*
X026270Y013141D01*
X027530Y013141D01*
X027530Y012590D01*
X026270Y012590D01*
X031513Y018055D02*
X031614Y018055D01*
X033728Y014352D02*
X034122Y014352D01*
X034122Y012580D01*
X033728Y012580D01*
X026730Y022290D02*
X025470Y022290D01*
X025470Y022841D01*
X026730Y022841D01*
X026730Y022290D01*
X021230Y022290D02*
X019970Y022290D01*
X019970Y022841D01*
X021230Y022841D01*
X021230Y022290D01*
X015030Y022290D02*
X013770Y022290D01*
X013770Y022841D01*
X015030Y022841D01*
X015030Y022290D01*
X007313Y025078D02*
X007313Y026078D01*
X004313Y026078D01*
X004313Y025078D01*
X007313Y025078D01*
D13*
X002037Y002519D02*
X002039Y002569D01*
X002045Y002619D01*
X002055Y002668D01*
X002069Y002716D01*
X002086Y002763D01*
X002107Y002808D01*
X002132Y002852D01*
X002160Y002893D01*
X002192Y002932D01*
X002226Y002969D01*
X002263Y003003D01*
X002303Y003033D01*
X002345Y003060D01*
X002389Y003084D01*
X002435Y003105D01*
X002482Y003121D01*
X002530Y003134D01*
X002580Y003143D01*
X002629Y003148D01*
X002680Y003149D01*
X002730Y003146D01*
X002779Y003139D01*
X002828Y003128D01*
X002876Y003113D01*
X002922Y003095D01*
X002967Y003073D01*
X003010Y003047D01*
X003051Y003018D01*
X003090Y002986D01*
X003126Y002951D01*
X003158Y002913D01*
X003188Y002873D01*
X003215Y002830D01*
X003238Y002786D01*
X003257Y002740D01*
X003273Y002692D01*
X003285Y002643D01*
X003293Y002594D01*
X003297Y002544D01*
X003297Y002494D01*
X003293Y002444D01*
X003285Y002395D01*
X003273Y002346D01*
X003257Y002298D01*
X003238Y002252D01*
X003215Y002208D01*
X003188Y002165D01*
X003158Y002125D01*
X003126Y002087D01*
X003090Y002052D01*
X003051Y002020D01*
X003010Y001991D01*
X002967Y001965D01*
X002922Y001943D01*
X002876Y001925D01*
X002828Y001910D01*
X002779Y001899D01*
X002730Y001892D01*
X002680Y001889D01*
X002629Y001890D01*
X002580Y001895D01*
X002530Y001904D01*
X002482Y001917D01*
X002435Y001933D01*
X002389Y001954D01*
X002345Y001978D01*
X002303Y002005D01*
X002263Y002035D01*
X002226Y002069D01*
X002192Y002106D01*
X002160Y002145D01*
X002132Y002186D01*
X002107Y002230D01*
X002086Y002275D01*
X002069Y002322D01*
X002055Y002370D01*
X002045Y002419D01*
X002039Y002469D01*
X002037Y002519D01*
X018561Y013109D02*
X018561Y015550D01*
X018680Y015668D01*
X021120Y015668D01*
X021239Y015550D01*
X021239Y013109D01*
X021120Y012991D01*
X018680Y012991D01*
X018561Y013109D01*
X029289Y012904D02*
X029289Y012594D01*
X029910Y012594D01*
X029703Y012594D02*
X029703Y012904D01*
X029600Y013008D01*
X029393Y013008D01*
X029289Y012904D01*
X029393Y013239D02*
X029807Y013239D01*
X029910Y013342D01*
X029910Y013549D01*
X029807Y013652D01*
X029910Y013883D02*
X029910Y014297D01*
X029910Y014090D02*
X029289Y014090D01*
X029496Y013883D01*
X029393Y013652D02*
X029289Y013549D01*
X029289Y013342D01*
X029393Y013239D01*
X030339Y013064D02*
X030960Y013064D01*
X030960Y012753D01*
X030857Y012650D01*
X030650Y012650D01*
X030546Y012753D01*
X030546Y013064D01*
X030546Y012423D02*
X030546Y012320D01*
X030753Y012113D01*
X030960Y012113D02*
X030546Y012113D01*
X030650Y011882D02*
X030546Y011779D01*
X030546Y011572D01*
X030753Y011572D02*
X030753Y011882D01*
X030650Y011882D02*
X030960Y011882D01*
X030960Y011572D01*
X030857Y011468D01*
X030753Y011572D01*
X030546Y011245D02*
X030546Y011039D01*
X030443Y011142D02*
X030857Y011142D01*
X030960Y011245D01*
X030753Y010808D02*
X030753Y010394D01*
X030650Y010394D02*
X030546Y010497D01*
X030546Y010704D01*
X030650Y010808D01*
X030753Y010808D01*
X030960Y010704D02*
X030960Y010497D01*
X030857Y010394D01*
X030650Y010394D01*
X030650Y010163D02*
X030443Y010163D01*
X030339Y010060D01*
X030339Y009749D01*
X030960Y009749D01*
X030753Y009749D02*
X030753Y010060D01*
X030650Y010163D01*
X030753Y009956D02*
X030960Y010163D01*
X029910Y011949D02*
X029289Y011949D01*
X029910Y011949D02*
X029910Y012363D01*
X030339Y013939D02*
X030339Y014249D01*
X030443Y014353D01*
X030546Y014353D01*
X030650Y014249D01*
X030650Y013939D01*
X030960Y013939D02*
X030960Y014249D01*
X030857Y014353D01*
X030753Y014353D01*
X030650Y014249D01*
X030650Y014584D02*
X030857Y014584D01*
X030960Y014687D01*
X030960Y014894D01*
X030857Y014997D01*
X030650Y014997D01*
X030546Y014894D01*
X030546Y014687D01*
X030650Y014584D01*
X030857Y015228D02*
X030753Y015332D01*
X030753Y015642D01*
X030650Y015642D02*
X030960Y015642D01*
X030960Y015332D01*
X030857Y015228D01*
X030546Y015332D02*
X030546Y015538D01*
X030650Y015642D01*
X030753Y015873D02*
X030546Y016080D01*
X030546Y016183D01*
X030650Y016410D02*
X030546Y016513D01*
X030546Y016823D01*
X030339Y016823D02*
X030960Y016823D01*
X030960Y016513D01*
X030857Y016410D01*
X030650Y016410D01*
X030546Y015873D02*
X030960Y015873D01*
X029910Y015920D02*
X029807Y015817D01*
X029910Y015920D02*
X029910Y016127D01*
X029807Y016230D01*
X029703Y016230D01*
X029600Y016127D01*
X029600Y016024D01*
X029600Y016127D02*
X029496Y016230D01*
X029393Y016230D01*
X029289Y016127D01*
X029289Y015920D01*
X029393Y015817D01*
X029600Y015586D02*
X029600Y015172D01*
X029289Y015482D01*
X029910Y015482D01*
X029807Y014941D02*
X029910Y014838D01*
X029910Y014631D01*
X029807Y014528D01*
X029600Y014734D02*
X029600Y014838D01*
X029703Y014941D01*
X029807Y014941D01*
X029600Y014838D02*
X029496Y014941D01*
X029393Y014941D01*
X029289Y014838D01*
X029289Y014631D01*
X029393Y014528D01*
X030339Y013939D02*
X030960Y013939D01*
X035501Y002519D02*
X035503Y002569D01*
X035509Y002619D01*
X035519Y002668D01*
X035533Y002716D01*
X035550Y002763D01*
X035571Y002808D01*
X035596Y002852D01*
X035624Y002893D01*
X035656Y002932D01*
X035690Y002969D01*
X035727Y003003D01*
X035767Y003033D01*
X035809Y003060D01*
X035853Y003084D01*
X035899Y003105D01*
X035946Y003121D01*
X035994Y003134D01*
X036044Y003143D01*
X036093Y003148D01*
X036144Y003149D01*
X036194Y003146D01*
X036243Y003139D01*
X036292Y003128D01*
X036340Y003113D01*
X036386Y003095D01*
X036431Y003073D01*
X036474Y003047D01*
X036515Y003018D01*
X036554Y002986D01*
X036590Y002951D01*
X036622Y002913D01*
X036652Y002873D01*
X036679Y002830D01*
X036702Y002786D01*
X036721Y002740D01*
X036737Y002692D01*
X036749Y002643D01*
X036757Y002594D01*
X036761Y002544D01*
X036761Y002494D01*
X036757Y002444D01*
X036749Y002395D01*
X036737Y002346D01*
X036721Y002298D01*
X036702Y002252D01*
X036679Y002208D01*
X036652Y002165D01*
X036622Y002125D01*
X036590Y002087D01*
X036554Y002052D01*
X036515Y002020D01*
X036474Y001991D01*
X036431Y001965D01*
X036386Y001943D01*
X036340Y001925D01*
X036292Y001910D01*
X036243Y001899D01*
X036194Y001892D01*
X036144Y001889D01*
X036093Y001890D01*
X036044Y001895D01*
X035994Y001904D01*
X035946Y001917D01*
X035899Y001933D01*
X035853Y001954D01*
X035809Y001978D01*
X035767Y002005D01*
X035727Y002035D01*
X035690Y002069D01*
X035656Y002106D01*
X035624Y002145D01*
X035596Y002186D01*
X035571Y002230D01*
X035550Y002275D01*
X035533Y002322D01*
X035519Y002370D01*
X035509Y002419D01*
X035503Y002469D01*
X035501Y002519D01*
X035501Y026113D02*
X035503Y026163D01*
X035509Y026213D01*
X035519Y026262D01*
X035533Y026310D01*
X035550Y026357D01*
X035571Y026402D01*
X035596Y026446D01*
X035624Y026487D01*
X035656Y026526D01*
X035690Y026563D01*
X035727Y026597D01*
X035767Y026627D01*
X035809Y026654D01*
X035853Y026678D01*
X035899Y026699D01*
X035946Y026715D01*
X035994Y026728D01*
X036044Y026737D01*
X036093Y026742D01*
X036144Y026743D01*
X036194Y026740D01*
X036243Y026733D01*
X036292Y026722D01*
X036340Y026707D01*
X036386Y026689D01*
X036431Y026667D01*
X036474Y026641D01*
X036515Y026612D01*
X036554Y026580D01*
X036590Y026545D01*
X036622Y026507D01*
X036652Y026467D01*
X036679Y026424D01*
X036702Y026380D01*
X036721Y026334D01*
X036737Y026286D01*
X036749Y026237D01*
X036757Y026188D01*
X036761Y026138D01*
X036761Y026088D01*
X036757Y026038D01*
X036749Y025989D01*
X036737Y025940D01*
X036721Y025892D01*
X036702Y025846D01*
X036679Y025802D01*
X036652Y025759D01*
X036622Y025719D01*
X036590Y025681D01*
X036554Y025646D01*
X036515Y025614D01*
X036474Y025585D01*
X036431Y025559D01*
X036386Y025537D01*
X036340Y025519D01*
X036292Y025504D01*
X036243Y025493D01*
X036194Y025486D01*
X036144Y025483D01*
X036093Y025484D01*
X036044Y025489D01*
X035994Y025498D01*
X035946Y025511D01*
X035899Y025527D01*
X035853Y025548D01*
X035809Y025572D01*
X035767Y025599D01*
X035727Y025629D01*
X035690Y025663D01*
X035656Y025700D01*
X035624Y025739D01*
X035596Y025780D01*
X035571Y025824D01*
X035550Y025869D01*
X035533Y025916D01*
X035519Y025964D01*
X035509Y026013D01*
X035503Y026063D01*
X035501Y026113D01*
X002037Y026125D02*
X002039Y026175D01*
X002045Y026225D01*
X002055Y026274D01*
X002069Y026322D01*
X002086Y026369D01*
X002107Y026414D01*
X002132Y026458D01*
X002160Y026499D01*
X002192Y026538D01*
X002226Y026575D01*
X002263Y026609D01*
X002303Y026639D01*
X002345Y026666D01*
X002389Y026690D01*
X002435Y026711D01*
X002482Y026727D01*
X002530Y026740D01*
X002580Y026749D01*
X002629Y026754D01*
X002680Y026755D01*
X002730Y026752D01*
X002779Y026745D01*
X002828Y026734D01*
X002876Y026719D01*
X002922Y026701D01*
X002967Y026679D01*
X003010Y026653D01*
X003051Y026624D01*
X003090Y026592D01*
X003126Y026557D01*
X003158Y026519D01*
X003188Y026479D01*
X003215Y026436D01*
X003238Y026392D01*
X003257Y026346D01*
X003273Y026298D01*
X003285Y026249D01*
X003293Y026200D01*
X003297Y026150D01*
X003297Y026100D01*
X003293Y026050D01*
X003285Y026001D01*
X003273Y025952D01*
X003257Y025904D01*
X003238Y025858D01*
X003215Y025814D01*
X003188Y025771D01*
X003158Y025731D01*
X003126Y025693D01*
X003090Y025658D01*
X003051Y025626D01*
X003010Y025597D01*
X002967Y025571D01*
X002922Y025549D01*
X002876Y025531D01*
X002828Y025516D01*
X002779Y025505D01*
X002730Y025498D01*
X002680Y025495D01*
X002629Y025496D01*
X002580Y025501D01*
X002530Y025510D01*
X002482Y025523D01*
X002435Y025539D01*
X002389Y025560D01*
X002345Y025584D01*
X002303Y025611D01*
X002263Y025641D01*
X002226Y025675D01*
X002192Y025712D01*
X002160Y025751D01*
X002132Y025792D01*
X002107Y025836D01*
X002086Y025881D01*
X002069Y025928D01*
X002055Y025976D01*
X002045Y026025D01*
X002039Y026075D01*
X002037Y026125D01*
D14*
X018403Y012440D02*
X018405Y012452D01*
X018410Y012463D01*
X018419Y012472D01*
X018430Y012477D01*
X018442Y012479D01*
X018454Y012477D01*
X018465Y012472D01*
X018474Y012463D01*
X018479Y012452D01*
X018481Y012440D01*
X018479Y012428D01*
X018474Y012417D01*
X018465Y012408D01*
X018454Y012403D01*
X018442Y012401D01*
X018430Y012403D01*
X018419Y012408D01*
X018410Y012417D01*
X018405Y012428D01*
X018403Y012440D01*
D15*
X018896Y013385D02*
X018898Y013403D01*
X018904Y013419D01*
X018913Y013434D01*
X018926Y013447D01*
X018941Y013456D01*
X018957Y013462D01*
X018975Y013464D01*
X018993Y013462D01*
X019009Y013456D01*
X019024Y013447D01*
X019037Y013434D01*
X019046Y013419D01*
X019052Y013403D01*
X019054Y013385D01*
X019052Y013367D01*
X019046Y013351D01*
X019037Y013336D01*
X019024Y013323D01*
X019009Y013314D01*
X018993Y013308D01*
X018975Y013306D01*
X018957Y013308D01*
X018941Y013314D01*
X018926Y013323D01*
X018913Y013336D01*
X018904Y013351D01*
X018898Y013367D01*
X018896Y013385D01*
D16*
X018900Y010209D02*
X021300Y010209D01*
X020350Y009859D02*
X020350Y009559D01*
X020600Y009559D01*
X020350Y009559D02*
X020350Y009259D01*
X020200Y009259D02*
X020200Y009859D01*
X020000Y009859D01*
X020000Y009259D01*
X020200Y009259D01*
X019850Y009259D02*
X019850Y009559D01*
X019600Y009559D01*
X019850Y009559D02*
X019850Y009859D01*
X018900Y010209D02*
X018850Y010207D01*
X018801Y010201D01*
X018752Y010192D01*
X018704Y010179D01*
X018657Y010162D01*
X018612Y010142D01*
X018568Y010118D01*
X018526Y010091D01*
X018486Y010060D01*
X018449Y010027D01*
X018415Y009991D01*
X018383Y009953D01*
X018354Y009912D01*
X018329Y009870D01*
X018307Y009825D01*
X018288Y009779D01*
X018273Y009731D01*
X018262Y009683D01*
X018254Y009634D01*
X018250Y009584D01*
X018250Y009534D01*
X018254Y009484D01*
X018262Y009435D01*
X018273Y009387D01*
X018288Y009339D01*
X018307Y009293D01*
X018329Y009248D01*
X018354Y009206D01*
X018383Y009165D01*
X018415Y009127D01*
X018449Y009091D01*
X018486Y009058D01*
X018526Y009027D01*
X018568Y009000D01*
X018612Y008976D01*
X018657Y008956D01*
X018704Y008939D01*
X018752Y008926D01*
X018801Y008917D01*
X018850Y008911D01*
X018900Y008909D01*
X021300Y008909D01*
X021350Y008911D01*
X021399Y008917D01*
X021448Y008926D01*
X021496Y008939D01*
X021543Y008956D01*
X021588Y008976D01*
X021632Y009000D01*
X021674Y009027D01*
X021714Y009058D01*
X021751Y009091D01*
X021785Y009127D01*
X021817Y009165D01*
X021846Y009206D01*
X021871Y009248D01*
X021893Y009293D01*
X021912Y009339D01*
X021927Y009387D01*
X021938Y009435D01*
X021946Y009484D01*
X021950Y009534D01*
X021950Y009584D01*
X021946Y009634D01*
X021938Y009683D01*
X021927Y009731D01*
X021912Y009779D01*
X021893Y009825D01*
X021871Y009870D01*
X021846Y009912D01*
X021817Y009953D01*
X021785Y009991D01*
X021751Y010027D01*
X021714Y010060D01*
X021674Y010091D01*
X021632Y010118D01*
X021588Y010142D01*
X021543Y010162D01*
X021496Y010179D01*
X021448Y010192D01*
X021399Y010201D01*
X021350Y010207D01*
X021300Y010209D01*
X031634Y007575D02*
X031634Y007178D01*
X031634Y006754D02*
X031634Y006337D01*
X032151Y006337D01*
X032154Y006784D02*
X032154Y007123D01*
X032151Y007575D02*
X031634Y007575D01*
X033728Y006970D02*
X033728Y012580D01*
X033728Y014352D02*
X033728Y019962D01*
X037272Y019962D01*
X037272Y006970D01*
X033728Y006970D01*
X034781Y002519D02*
X034783Y002592D01*
X034789Y002665D01*
X034799Y002737D01*
X034813Y002809D01*
X034830Y002880D01*
X034852Y002950D01*
X034877Y003019D01*
X034906Y003086D01*
X034938Y003151D01*
X034974Y003215D01*
X035014Y003277D01*
X035056Y003336D01*
X035102Y003393D01*
X035151Y003447D01*
X035203Y003499D01*
X035257Y003548D01*
X035314Y003594D01*
X035373Y003636D01*
X035435Y003676D01*
X035499Y003712D01*
X035564Y003744D01*
X035631Y003773D01*
X035700Y003798D01*
X035770Y003820D01*
X035841Y003837D01*
X035913Y003851D01*
X035985Y003861D01*
X036058Y003867D01*
X036131Y003869D01*
X036204Y003867D01*
X036277Y003861D01*
X036349Y003851D01*
X036421Y003837D01*
X036492Y003820D01*
X036562Y003798D01*
X036631Y003773D01*
X036698Y003744D01*
X036763Y003712D01*
X036827Y003676D01*
X036889Y003636D01*
X036948Y003594D01*
X037005Y003548D01*
X037059Y003499D01*
X037111Y003447D01*
X037160Y003393D01*
X037206Y003336D01*
X037248Y003277D01*
X037288Y003215D01*
X037324Y003151D01*
X037356Y003086D01*
X037385Y003019D01*
X037410Y002950D01*
X037432Y002880D01*
X037449Y002809D01*
X037463Y002737D01*
X037473Y002665D01*
X037479Y002592D01*
X037481Y002519D01*
X037479Y002446D01*
X037473Y002373D01*
X037463Y002301D01*
X037449Y002229D01*
X037432Y002158D01*
X037410Y002088D01*
X037385Y002019D01*
X037356Y001952D01*
X037324Y001887D01*
X037288Y001823D01*
X037248Y001761D01*
X037206Y001702D01*
X037160Y001645D01*
X037111Y001591D01*
X037059Y001539D01*
X037005Y001490D01*
X036948Y001444D01*
X036889Y001402D01*
X036827Y001362D01*
X036763Y001326D01*
X036698Y001294D01*
X036631Y001265D01*
X036562Y001240D01*
X036492Y001218D01*
X036421Y001201D01*
X036349Y001187D01*
X036277Y001177D01*
X036204Y001171D01*
X036131Y001169D01*
X036058Y001171D01*
X035985Y001177D01*
X035913Y001187D01*
X035841Y001201D01*
X035770Y001218D01*
X035700Y001240D01*
X035631Y001265D01*
X035564Y001294D01*
X035499Y001326D01*
X035435Y001362D01*
X035373Y001402D01*
X035314Y001444D01*
X035257Y001490D01*
X035203Y001539D01*
X035151Y001591D01*
X035102Y001645D01*
X035056Y001702D01*
X035014Y001761D01*
X034974Y001823D01*
X034938Y001887D01*
X034906Y001952D01*
X034877Y002019D01*
X034852Y002088D01*
X034830Y002158D01*
X034813Y002229D01*
X034799Y002301D01*
X034789Y002373D01*
X034783Y002446D01*
X034781Y002519D01*
X034580Y017796D02*
X034250Y017966D01*
X034350Y017966D01*
X034250Y017966D02*
X034580Y018136D01*
X034580Y017796D01*
X034960Y018393D02*
X034780Y018573D01*
X035320Y018573D01*
X035320Y018393D02*
X035320Y018754D01*
X034781Y026113D02*
X034783Y026186D01*
X034789Y026259D01*
X034799Y026331D01*
X034813Y026403D01*
X034830Y026474D01*
X034852Y026544D01*
X034877Y026613D01*
X034906Y026680D01*
X034938Y026745D01*
X034974Y026809D01*
X035014Y026871D01*
X035056Y026930D01*
X035102Y026987D01*
X035151Y027041D01*
X035203Y027093D01*
X035257Y027142D01*
X035314Y027188D01*
X035373Y027230D01*
X035435Y027270D01*
X035499Y027306D01*
X035564Y027338D01*
X035631Y027367D01*
X035700Y027392D01*
X035770Y027414D01*
X035841Y027431D01*
X035913Y027445D01*
X035985Y027455D01*
X036058Y027461D01*
X036131Y027463D01*
X036204Y027461D01*
X036277Y027455D01*
X036349Y027445D01*
X036421Y027431D01*
X036492Y027414D01*
X036562Y027392D01*
X036631Y027367D01*
X036698Y027338D01*
X036763Y027306D01*
X036827Y027270D01*
X036889Y027230D01*
X036948Y027188D01*
X037005Y027142D01*
X037059Y027093D01*
X037111Y027041D01*
X037160Y026987D01*
X037206Y026930D01*
X037248Y026871D01*
X037288Y026809D01*
X037324Y026745D01*
X037356Y026680D01*
X037385Y026613D01*
X037410Y026544D01*
X037432Y026474D01*
X037449Y026403D01*
X037463Y026331D01*
X037473Y026259D01*
X037479Y026186D01*
X037481Y026113D01*
X037479Y026040D01*
X037473Y025967D01*
X037463Y025895D01*
X037449Y025823D01*
X037432Y025752D01*
X037410Y025682D01*
X037385Y025613D01*
X037356Y025546D01*
X037324Y025481D01*
X037288Y025417D01*
X037248Y025355D01*
X037206Y025296D01*
X037160Y025239D01*
X037111Y025185D01*
X037059Y025133D01*
X037005Y025084D01*
X036948Y025038D01*
X036889Y024996D01*
X036827Y024956D01*
X036763Y024920D01*
X036698Y024888D01*
X036631Y024859D01*
X036562Y024834D01*
X036492Y024812D01*
X036421Y024795D01*
X036349Y024781D01*
X036277Y024771D01*
X036204Y024765D01*
X036131Y024763D01*
X036058Y024765D01*
X035985Y024771D01*
X035913Y024781D01*
X035841Y024795D01*
X035770Y024812D01*
X035700Y024834D01*
X035631Y024859D01*
X035564Y024888D01*
X035499Y024920D01*
X035435Y024956D01*
X035373Y024996D01*
X035314Y025038D01*
X035257Y025084D01*
X035203Y025133D01*
X035151Y025185D01*
X035102Y025239D01*
X035056Y025296D01*
X035014Y025355D01*
X034974Y025417D01*
X034938Y025481D01*
X034906Y025546D01*
X034877Y025613D01*
X034852Y025682D01*
X034830Y025752D01*
X034813Y025823D01*
X034799Y025895D01*
X034789Y025967D01*
X034783Y026040D01*
X034781Y026113D01*
X009057Y011685D02*
X008540Y011685D01*
X008540Y011288D01*
X008540Y010864D02*
X008540Y010447D01*
X009057Y010447D01*
X009060Y010894D02*
X009060Y011232D01*
X006319Y007919D02*
X005922Y007919D01*
X006319Y007919D02*
X006319Y007403D01*
X005866Y007399D02*
X005528Y007399D01*
X005081Y007403D02*
X005081Y007919D01*
X005498Y007919D01*
X001317Y002519D02*
X001319Y002592D01*
X001325Y002665D01*
X001335Y002737D01*
X001349Y002809D01*
X001366Y002880D01*
X001388Y002950D01*
X001413Y003019D01*
X001442Y003086D01*
X001474Y003151D01*
X001510Y003215D01*
X001550Y003277D01*
X001592Y003336D01*
X001638Y003393D01*
X001687Y003447D01*
X001739Y003499D01*
X001793Y003548D01*
X001850Y003594D01*
X001909Y003636D01*
X001971Y003676D01*
X002035Y003712D01*
X002100Y003744D01*
X002167Y003773D01*
X002236Y003798D01*
X002306Y003820D01*
X002377Y003837D01*
X002449Y003851D01*
X002521Y003861D01*
X002594Y003867D01*
X002667Y003869D01*
X002740Y003867D01*
X002813Y003861D01*
X002885Y003851D01*
X002957Y003837D01*
X003028Y003820D01*
X003098Y003798D01*
X003167Y003773D01*
X003234Y003744D01*
X003299Y003712D01*
X003363Y003676D01*
X003425Y003636D01*
X003484Y003594D01*
X003541Y003548D01*
X003595Y003499D01*
X003647Y003447D01*
X003696Y003393D01*
X003742Y003336D01*
X003784Y003277D01*
X003824Y003215D01*
X003860Y003151D01*
X003892Y003086D01*
X003921Y003019D01*
X003946Y002950D01*
X003968Y002880D01*
X003985Y002809D01*
X003999Y002737D01*
X004009Y002665D01*
X004015Y002592D01*
X004017Y002519D01*
X004015Y002446D01*
X004009Y002373D01*
X003999Y002301D01*
X003985Y002229D01*
X003968Y002158D01*
X003946Y002088D01*
X003921Y002019D01*
X003892Y001952D01*
X003860Y001887D01*
X003824Y001823D01*
X003784Y001761D01*
X003742Y001702D01*
X003696Y001645D01*
X003647Y001591D01*
X003595Y001539D01*
X003541Y001490D01*
X003484Y001444D01*
X003425Y001402D01*
X003363Y001362D01*
X003299Y001326D01*
X003234Y001294D01*
X003167Y001265D01*
X003098Y001240D01*
X003028Y001218D01*
X002957Y001201D01*
X002885Y001187D01*
X002813Y001177D01*
X002740Y001171D01*
X002667Y001169D01*
X002594Y001171D01*
X002521Y001177D01*
X002449Y001187D01*
X002377Y001201D01*
X002306Y001218D01*
X002236Y001240D01*
X002167Y001265D01*
X002100Y001294D01*
X002035Y001326D01*
X001971Y001362D01*
X001909Y001402D01*
X001850Y001444D01*
X001793Y001490D01*
X001739Y001539D01*
X001687Y001591D01*
X001638Y001645D01*
X001592Y001702D01*
X001550Y001761D01*
X001510Y001823D01*
X001474Y001887D01*
X001442Y001952D01*
X001413Y002019D01*
X001388Y002088D01*
X001366Y002158D01*
X001349Y002229D01*
X001335Y002301D01*
X001325Y002373D01*
X001319Y002446D01*
X001317Y002519D01*
X001317Y026125D02*
X001319Y026198D01*
X001325Y026271D01*
X001335Y026343D01*
X001349Y026415D01*
X001366Y026486D01*
X001388Y026556D01*
X001413Y026625D01*
X001442Y026692D01*
X001474Y026757D01*
X001510Y026821D01*
X001550Y026883D01*
X001592Y026942D01*
X001638Y026999D01*
X001687Y027053D01*
X001739Y027105D01*
X001793Y027154D01*
X001850Y027200D01*
X001909Y027242D01*
X001971Y027282D01*
X002035Y027318D01*
X002100Y027350D01*
X002167Y027379D01*
X002236Y027404D01*
X002306Y027426D01*
X002377Y027443D01*
X002449Y027457D01*
X002521Y027467D01*
X002594Y027473D01*
X002667Y027475D01*
X002740Y027473D01*
X002813Y027467D01*
X002885Y027457D01*
X002957Y027443D01*
X003028Y027426D01*
X003098Y027404D01*
X003167Y027379D01*
X003234Y027350D01*
X003299Y027318D01*
X003363Y027282D01*
X003425Y027242D01*
X003484Y027200D01*
X003541Y027154D01*
X003595Y027105D01*
X003647Y027053D01*
X003696Y026999D01*
X003742Y026942D01*
X003784Y026883D01*
X003824Y026821D01*
X003860Y026757D01*
X003892Y026692D01*
X003921Y026625D01*
X003946Y026556D01*
X003968Y026486D01*
X003985Y026415D01*
X003999Y026343D01*
X004009Y026271D01*
X004015Y026198D01*
X004017Y026125D01*
X004015Y026052D01*
X004009Y025979D01*
X003999Y025907D01*
X003985Y025835D01*
X003968Y025764D01*
X003946Y025694D01*
X003921Y025625D01*
X003892Y025558D01*
X003860Y025493D01*
X003824Y025429D01*
X003784Y025367D01*
X003742Y025308D01*
X003696Y025251D01*
X003647Y025197D01*
X003595Y025145D01*
X003541Y025096D01*
X003484Y025050D01*
X003425Y025008D01*
X003363Y024968D01*
X003299Y024932D01*
X003234Y024900D01*
X003167Y024871D01*
X003098Y024846D01*
X003028Y024824D01*
X002957Y024807D01*
X002885Y024793D01*
X002813Y024783D01*
X002740Y024777D01*
X002667Y024775D01*
X002594Y024777D01*
X002521Y024783D01*
X002449Y024793D01*
X002377Y024807D01*
X002306Y024824D01*
X002236Y024846D01*
X002167Y024871D01*
X002100Y024900D01*
X002035Y024932D01*
X001971Y024968D01*
X001909Y025008D01*
X001850Y025050D01*
X001793Y025096D01*
X001739Y025145D01*
X001687Y025197D01*
X001638Y025251D01*
X001592Y025308D01*
X001550Y025367D01*
X001510Y025429D01*
X001474Y025493D01*
X001442Y025558D01*
X001413Y025625D01*
X001388Y025694D01*
X001366Y025764D01*
X001349Y025835D01*
X001335Y025907D01*
X001325Y025979D01*
X001319Y026052D01*
X001317Y026125D01*
D17*
X008781Y020274D02*
X008781Y018857D01*
X009328Y018857D01*
X009372Y018857D01*
X009328Y018857D02*
X011419Y018857D01*
X011419Y020274D01*
X011391Y020274D02*
X009815Y020274D01*
X009785Y020274D02*
X008809Y020274D01*
D18*
X002833Y022564D02*
X002506Y022564D01*
X002670Y022401D02*
X002670Y022728D01*
D19*
X002753Y020071D02*
X002753Y019781D01*
X002560Y020071D01*
X002560Y019781D01*
X002458Y019829D02*
X002458Y019926D01*
X002362Y019926D01*
X002458Y020023D02*
X002410Y020071D01*
X002313Y020071D01*
X002265Y020023D01*
X002265Y019829D01*
X002313Y019781D01*
X002410Y019781D01*
X002458Y019829D01*
X002854Y019781D02*
X002854Y020071D01*
X002999Y020071D01*
X003048Y020023D01*
X003048Y019829D01*
X002999Y019781D01*
X002854Y019781D01*
D20*
X034460Y017966D03*
D21*
X034535Y018041D03*
X034535Y017891D03*
D22*
X034380Y017966D03*
M02*
