G75*
G70*
%OFA0B0*%
%FSLAX24Y24*%
%IPPOS*%
%LPD*%
%AMOC8*
5,1,8,0,0,1.08239X$1,22.5*
%
%ADD10R,0.0098X0.0591*%
%ADD11R,0.0591X0.0098*%
%ADD12R,0.0276X0.0236*%
%ADD13R,0.0394X0.0433*%
%ADD14R,0.0472X0.0472*%
%ADD15R,0.0433X0.0394*%
%ADD16R,0.0512X0.0512*%
%ADD17R,0.1417X0.0512*%
%ADD18R,0.0591X0.0768*%
%ADD19R,0.0945X0.0787*%
%ADD20R,0.0909X0.0197*%
%ADD21R,0.0591X0.0512*%
%ADD22R,0.1000X0.1000*%
%ADD23R,0.1260X0.0472*%
%ADD24R,0.1024X0.0256*%
%ADD25R,0.0768X0.0591*%
%ADD26R,0.0472X0.1260*%
%ADD27R,0.0236X0.0276*%
%ADD28R,0.0472X0.0217*%
D10*
X018817Y012637D03*
X019014Y012637D03*
X019211Y012637D03*
X019408Y012637D03*
X019605Y012637D03*
X019802Y012637D03*
X019998Y012637D03*
X020195Y012637D03*
X020392Y012637D03*
X020589Y012637D03*
X020786Y012637D03*
X020983Y012637D03*
X020983Y016022D03*
X020786Y016022D03*
X020589Y016022D03*
X020392Y016022D03*
X020195Y016022D03*
X019998Y016022D03*
X019802Y016022D03*
X019605Y016022D03*
X019408Y016022D03*
X019211Y016022D03*
X019014Y016022D03*
X018817Y016022D03*
D11*
X018207Y015412D03*
X018207Y015215D03*
X018207Y015019D03*
X018207Y014822D03*
X018207Y014625D03*
X018207Y014428D03*
X018207Y014231D03*
X018207Y014034D03*
X018207Y013837D03*
X018207Y013641D03*
X018207Y013444D03*
X018207Y013247D03*
X021593Y013247D03*
X021593Y013444D03*
X021593Y013641D03*
X021593Y013837D03*
X021593Y014034D03*
X021593Y014231D03*
X021593Y014428D03*
X021593Y014625D03*
X021593Y014822D03*
X021593Y015019D03*
X021593Y015215D03*
X021593Y015412D03*
D12*
X031500Y006956D03*
X032287Y006582D03*
X032287Y007330D03*
X009194Y010692D03*
X009194Y011440D03*
X008406Y011066D03*
D13*
X008800Y009700D03*
X008800Y009031D03*
X010969Y010859D03*
X010969Y011529D03*
X012325Y011529D03*
X012325Y010859D03*
X008800Y012531D03*
X008800Y013200D03*
X008700Y014931D03*
X008700Y015600D03*
X003300Y016928D03*
X003300Y017597D03*
X003300Y010697D03*
X003300Y010028D03*
X005203Y006394D03*
X005203Y005725D03*
X006103Y005725D03*
X006103Y006394D03*
X006992Y006394D03*
X006992Y005725D03*
X019408Y007114D03*
X019408Y007783D03*
X020950Y007794D03*
X020950Y007125D03*
X032300Y024631D03*
X032300Y025300D03*
D14*
X033250Y002720D03*
X033250Y001893D03*
X002400Y009949D03*
X002400Y010776D03*
X002400Y016849D03*
X002400Y017676D03*
D15*
X008065Y022566D03*
X008735Y022566D03*
X014065Y022566D03*
X014735Y022566D03*
X020265Y022566D03*
X020935Y022566D03*
X025765Y022566D03*
X026435Y022566D03*
X026565Y012866D03*
X027235Y012866D03*
X025735Y009163D03*
X025065Y009163D03*
X025065Y007956D03*
X025735Y007956D03*
X025735Y006050D03*
X025065Y006050D03*
X032265Y008556D03*
X032935Y008556D03*
X033247Y003709D03*
X032578Y003709D03*
X014835Y005950D03*
X014165Y005950D03*
X006335Y003450D03*
X005665Y003450D03*
X010065Y013266D03*
X010735Y013266D03*
X010735Y014166D03*
X010065Y014166D03*
X010065Y015666D03*
X010735Y015666D03*
D16*
X011006Y020767D03*
X010100Y020767D03*
X009194Y020767D03*
D17*
X010100Y018365D03*
D18*
X007900Y019624D03*
X007900Y020707D03*
X006200Y016007D03*
X006200Y014924D03*
X010900Y009407D03*
X010900Y008324D03*
D19*
X003978Y012030D03*
X001813Y012030D03*
X001813Y015495D03*
X003978Y015495D03*
X005091Y019100D03*
X002650Y019100D03*
X002650Y023431D03*
X005091Y023431D03*
D20*
X004200Y014393D03*
X004200Y014078D03*
X004200Y013763D03*
X004200Y013448D03*
X004200Y013133D03*
D21*
X017937Y012408D03*
X017937Y011660D03*
X021800Y011592D03*
X021800Y012340D03*
D22*
X007425Y017666D03*
X005575Y017666D03*
D23*
X034161Y006200D03*
X034161Y004625D03*
X036839Y004625D03*
X036839Y006200D03*
D24*
X036228Y021266D03*
X036228Y021766D03*
X036228Y022266D03*
X036228Y022766D03*
X036228Y023266D03*
X034772Y023266D03*
X034772Y022766D03*
X034772Y022266D03*
X034772Y021766D03*
X034772Y021266D03*
D25*
X030241Y006050D03*
X029159Y006050D03*
D26*
X004087Y005411D03*
X002513Y005411D03*
X002513Y008089D03*
X004087Y008089D03*
D27*
X005326Y007266D03*
X006074Y007266D03*
X005700Y008053D03*
D28*
X005488Y001576D03*
X005488Y002324D03*
X006512Y002324D03*
X006512Y001950D03*
X006512Y001576D03*
M02*
