%
M48
M72
T01C0.0157
T02C0.0320
T03C0.0354
T04C0.0394
T05C0.0630
T06C0.0709
T07C0.1181
%
T01
X6500Y2750
X7200Y3950
X5200Y4950
X7800Y7150
X8100Y6150
X8600Y5750
X9100Y5750
X11100Y5750
X12100Y6550
X13300Y5750
X13700Y6850
X14900Y7550
X15300Y7150
X15700Y7450
X16100Y6850
X16500Y6250
X16700Y5050
X18500Y5750
X19100Y6150
X20100Y5750
X18100Y6950
X17100Y8150
X17300Y8650
X15600Y8150
X14100Y9450
X14100Y10250
X14900Y11050
X15300Y10750
X13300Y11350
X12300Y12350
X12800Y12750
X12300Y13150
X10100Y12350
X9600Y14850
X11500Y16250
X11800Y16550
X12300Y17150
X13700Y17750
X12200Y19650
X11800Y20150
X11000Y21650
X10200Y22550
X11000Y24650
X9100Y24650
X7600Y21850
X13300Y22550
X14100Y21950
X15400Y21950
X16800Y22650
X17100Y20950
X16100Y20450
X16400Y19850
X16000Y19650
X17600Y20150
X18100Y19850
X18600Y21650
X20100Y21550
X20600Y21950
X20400Y20950
X20400Y19450
X20700Y18750
X20900Y18250
X21000Y17750
X21100Y17350
X22500Y16850
X23200Y16550
X23500Y16250
X23800Y15850
X24200Y15450
X24500Y15050
X25400Y13850
X26000Y13550
X25100Y11850
X25700Y11050
X26500Y10550
X27300Y11850
X28900Y11450
X29100Y12450
X30300Y14250
X32600Y14850
X33000Y11850
X33500Y10950
X36700Y11450
X37100Y12450
X37500Y14450
X37600Y15450
X33000Y17950
X33500Y19450
X30100Y18250
X29100Y18750
X28100Y17350
X25700Y16850
X22900Y15850
X22900Y15450
X22900Y15050
X23200Y13850
X23300Y13350
X22500Y13150
X21800Y12850
X20200Y13750
X19200Y13750
X19200Y14750
X17300Y15450
X15600Y15450
X17300Y12850
X17400Y12350
X18800Y11450
X19000Y11050
X19300Y10750
X20600Y10250
X20800Y10550
X23300Y11050
X24100Y8950
X22700Y7950
X22400Y7450
X23500Y6950
X23800Y6550
X24200Y6150
X26500Y7950
X28800Y6950
X31500Y7950
X32800Y6950
X34300Y7950
X32300Y4350
X28100Y3850
X22700Y3950
X11600Y8050
X10100Y8650
X9500Y8950
X10100Y9550
X11600Y9450
X8600Y8050
X7900Y9350
X4800Y7250
X2400Y9350
X7000Y14950
X7600Y16750
X10100Y17150
X20226Y23424
X20500Y25850
X25700Y21950
X25500Y20450
X28100Y21550
X36200Y23750
T02
X21050Y9559
X19150Y9559
T03
X2994Y12896
X2994Y14629
T04
X4813Y25578
X5813Y25578
X6813Y25578
X8100Y27050
X9100Y27050
X10100Y27050
X11100Y27050
X12100Y27050
X13100Y27050
X14100Y27050
X15100Y27050
X16100Y27050
X17100Y27050
X18100Y27050
X19100Y27050
X20100Y27050
X21100Y27050
X22100Y27050
X23100Y27050
X24100Y27050
X25100Y27050
X26100Y27050
X27100Y27050
X28100Y27050
X29100Y27050
X30100Y27050
X31100Y27050
X33100Y27066
X35000Y17966
X36000Y17966
X36000Y16966
X35000Y16966
X35000Y15966
X36000Y15966
X36000Y14966
X35000Y14966
X35000Y13966
X36000Y13966
X36000Y12966
X35000Y12966
X35000Y11966
X36000Y11966
X36000Y10966
X35000Y10966
X35000Y9966
X36000Y9966
X36000Y8966
X35000Y8966
X31100Y1550
X30100Y1550
X29100Y1550
X28100Y1550
X27100Y1550
X26100Y1550
X25100Y1550
X24100Y1550
X23100Y1550
X22100Y1550
X21100Y1550
X20100Y1550
X19100Y1550
X18100Y1550
X17100Y1550
X16100Y1550
X15100Y1550
X14100Y1550
X13100Y1550
X12100Y1550
X11100Y1550
X10100Y1550
X9100Y1550
X8100Y1550
T05
X2650Y21266
T06
X4422Y21266
T07
X2667Y2519
X2667Y26125
X36131Y26113
X36131Y2519
M30
