G75*
G70*
%OFA0B0*%
%FSLAX24Y24*%
%IPPOS*%
%LPD*%
%AMOC8*
5,1,8,0,0,1.08239X$1,22.5*
%
%ADD10C,0.0485*%
%ADD11OC8,0.0760*%
%ADD12C,0.0559*%
%ADD13OC8,0.0559*%
%ADD14C,0.0660*%
%ADD15C,0.0160*%
%ADD16C,0.0100*%
%ADD17C,0.0323*%
%ADD18C,0.0240*%
D10*
X019150Y009559D03*
X021050Y009559D03*
D11*
X006813Y025578D03*
X005813Y025578D03*
X004813Y025578D03*
D12*
X035000Y017966D03*
D13*
X036000Y017966D03*
X036000Y016966D03*
X035000Y016966D03*
X035000Y015966D03*
X036000Y015966D03*
X036000Y014966D03*
X035000Y014966D03*
X035000Y013966D03*
X036000Y013966D03*
X036000Y012966D03*
X035000Y012966D03*
X035000Y011966D03*
X036000Y011966D03*
X036000Y010966D03*
X035000Y010966D03*
X035000Y009966D03*
X036000Y009966D03*
X036000Y008966D03*
X035000Y008966D03*
D14*
X031100Y001550D03*
X030100Y001550D03*
X029100Y001550D03*
X028100Y001550D03*
X027100Y001550D03*
X026100Y001550D03*
X025100Y001550D03*
X024100Y001550D03*
X023100Y001550D03*
X022100Y001550D03*
X021100Y001550D03*
X020100Y001550D03*
X019100Y001550D03*
X018100Y001550D03*
X017100Y001550D03*
X016100Y001550D03*
X015100Y001550D03*
X014100Y001550D03*
X013100Y001550D03*
X012100Y001550D03*
X011100Y001550D03*
X010100Y001550D03*
X009100Y001550D03*
X008100Y001550D03*
X008100Y027050D03*
X009100Y027050D03*
X010100Y027050D03*
X011100Y027050D03*
X012100Y027050D03*
X013100Y027050D03*
X014100Y027050D03*
X015100Y027050D03*
X016100Y027050D03*
X017100Y027050D03*
X018100Y027050D03*
X019100Y027050D03*
X020100Y027050D03*
X021100Y027050D03*
X022100Y027050D03*
X023100Y027050D03*
X024100Y027050D03*
X025100Y027050D03*
X026100Y027050D03*
X027100Y027050D03*
X028100Y027050D03*
X029100Y027050D03*
X030100Y027050D03*
X031100Y027050D03*
X033100Y027066D03*
D15*
X025700Y021950D02*
X020600Y021950D01*
X020226Y023424D02*
X020200Y023550D01*
X020200Y025550D01*
X020500Y025850D01*
X014500Y025950D01*
X013700Y025950D01*
X013300Y025550D01*
X013300Y022550D01*
X010200Y022550D01*
X007600Y021850D02*
X007600Y016750D01*
X007600Y012750D01*
X008000Y012350D01*
X010100Y012350D01*
X010100Y009550D01*
X011600Y009450D02*
X014100Y009450D01*
X011600Y008050D02*
X008600Y008050D01*
X007900Y009350D02*
X002400Y009350D01*
X005200Y004950D02*
X007800Y004950D01*
X008600Y005750D01*
X012300Y012350D02*
X017300Y012350D01*
X021800Y012850D02*
X024900Y012850D01*
X025100Y012650D01*
X025100Y011850D01*
X027300Y011850D01*
X033000Y011850D01*
X033000Y017950D02*
X034984Y017950D01*
X035000Y017966D01*
D16*
X033500Y019450D02*
X020400Y019450D01*
X020700Y018750D02*
X029100Y018750D01*
X030100Y018250D02*
X020900Y018250D01*
X021000Y017750D02*
X013700Y017750D01*
X012300Y017150D02*
X010100Y017150D01*
X011500Y016250D02*
X023500Y016250D01*
X023200Y016550D02*
X011800Y016550D01*
X009600Y014850D02*
X018500Y014850D01*
X019000Y014350D01*
X030200Y014350D01*
X030300Y014250D01*
X032500Y014750D02*
X032600Y014850D01*
X032500Y014750D02*
X019200Y014750D01*
X019200Y013750D02*
X020200Y013750D01*
X021098Y013150D02*
X021198Y013250D01*
X022400Y013250D01*
X023300Y013350D02*
X025800Y013350D01*
X026000Y013550D01*
X025400Y013850D02*
X023240Y013850D01*
X022880Y015050D02*
X024500Y015050D01*
X024200Y015470D02*
X022880Y015470D01*
X022880Y015890D02*
X023800Y015890D01*
X022500Y016850D02*
X025700Y016850D01*
X028100Y017350D02*
X021100Y017350D01*
X018100Y019850D02*
X016400Y019850D01*
X016000Y019650D02*
X012200Y019650D01*
X011800Y020150D02*
X017600Y020150D01*
X017100Y020950D02*
X020400Y020950D01*
X020100Y021550D02*
X028100Y021550D01*
X025500Y020450D02*
X016100Y020450D01*
X015400Y021950D02*
X014100Y021950D01*
X016800Y022650D02*
X035100Y022650D01*
X036200Y023750D01*
X035484Y015450D02*
X035000Y014966D01*
X035484Y015450D02*
X037600Y015450D01*
X037500Y014450D02*
X035484Y014450D01*
X035000Y013966D01*
X034516Y012450D02*
X035000Y011966D01*
X035484Y012450D01*
X037100Y012450D01*
X036700Y011450D02*
X035300Y011450D01*
X035000Y011150D01*
X035000Y010966D01*
X034984Y010950D01*
X033500Y010950D01*
X034516Y012450D02*
X029100Y012450D01*
X028900Y011450D02*
X019400Y011450D01*
X019000Y011050D01*
X014900Y011050D01*
X015300Y010750D02*
X019300Y010750D01*
X018800Y011450D02*
X013400Y011450D01*
X013300Y011350D01*
X014100Y010250D02*
X020400Y010250D01*
X020800Y010550D02*
X026500Y010550D01*
X025700Y011050D02*
X023300Y011050D01*
X024100Y008950D02*
X009500Y008950D01*
X010100Y008650D02*
X017300Y008650D01*
X017100Y008150D02*
X015600Y008150D01*
X014900Y007550D02*
X005100Y007550D01*
X004800Y007250D01*
X007800Y007150D02*
X015300Y007150D01*
X015700Y007450D02*
X022400Y007450D01*
X022700Y007950D02*
X026500Y007950D01*
X028800Y006950D02*
X032800Y006950D01*
X031500Y007950D02*
X034300Y007950D01*
X032300Y004350D02*
X031800Y003850D01*
X028100Y003850D01*
X026400Y002750D02*
X027100Y002050D01*
X027100Y001550D01*
X026400Y002750D02*
X006500Y002750D01*
X007200Y003950D02*
X022700Y003950D01*
X024200Y006150D02*
X019100Y006150D01*
X018500Y005750D02*
X020100Y005750D01*
X018100Y006950D02*
X023500Y006950D01*
X023800Y006550D02*
X012100Y006550D01*
X011100Y005750D02*
X013300Y005750D01*
X013700Y006850D02*
X016100Y006850D01*
X016500Y006250D02*
X008200Y006250D01*
X008100Y006150D01*
X009100Y005750D02*
X009800Y005050D01*
X016700Y005050D01*
X017300Y012850D02*
X012900Y012850D01*
X012800Y012750D01*
X012300Y013150D02*
X021098Y013150D01*
X017300Y015450D02*
X015600Y015450D01*
X018600Y021650D02*
X011000Y021650D01*
X011000Y024650D02*
X009100Y024650D01*
D17*
X006500Y002750D03*
X007200Y003950D03*
X005200Y004950D03*
X007800Y007150D03*
X008100Y006150D03*
X008600Y005750D03*
X009100Y005750D03*
X011100Y005750D03*
X012100Y006550D03*
X013300Y005750D03*
X013700Y006850D03*
X014900Y007550D03*
X015300Y007150D03*
X015700Y007450D03*
X016100Y006850D03*
X016500Y006250D03*
X016700Y005050D03*
X018500Y005750D03*
X019100Y006150D03*
X020100Y005750D03*
X018100Y006950D03*
X017100Y008150D03*
X017300Y008650D03*
X015600Y008150D03*
X014100Y009450D03*
X014100Y010250D03*
X014900Y011050D03*
X015300Y010750D03*
X013300Y011350D03*
X012300Y012350D03*
X012800Y012750D03*
X012300Y013150D03*
X010100Y012350D03*
X009600Y014850D03*
X011500Y016250D03*
X011800Y016550D03*
X012300Y017150D03*
X013700Y017750D03*
X012200Y019650D03*
X011800Y020150D03*
X011000Y021650D03*
X010200Y022550D03*
X011000Y024650D03*
X009100Y024650D03*
X007600Y021850D03*
X013300Y022550D03*
X014100Y021950D03*
X015400Y021950D03*
X016800Y022650D03*
X017100Y020950D03*
X016100Y020450D03*
X016400Y019850D03*
X016000Y019650D03*
X017600Y020150D03*
X018100Y019850D03*
X018600Y021650D03*
X020100Y021550D03*
X020600Y021950D03*
X020400Y020950D03*
X020400Y019450D03*
X020700Y018750D03*
X020900Y018250D03*
X021000Y017750D03*
X021100Y017350D03*
X022500Y016850D03*
X023200Y016550D03*
X023500Y016250D03*
X023800Y015890D03*
X024200Y015470D03*
X024500Y015050D03*
X025400Y013850D03*
X026000Y013550D03*
X025100Y011850D03*
X025700Y011050D03*
X026500Y010550D03*
X027300Y011850D03*
X028900Y011450D03*
X029100Y012450D03*
X030300Y014250D03*
X032600Y014850D03*
X033000Y011850D03*
X033500Y010950D03*
X036700Y011450D03*
X037100Y012450D03*
X037500Y014450D03*
X037600Y015450D03*
X033000Y017950D03*
X033500Y019450D03*
X030100Y018250D03*
X029100Y018750D03*
X028100Y017350D03*
X025700Y016850D03*
X022880Y015890D03*
X022880Y015470D03*
X022880Y015050D03*
X023240Y013850D03*
X023300Y013350D03*
X022400Y013250D03*
X021800Y012850D03*
X020200Y013750D03*
X019200Y013750D03*
X019200Y014750D03*
X017300Y015450D03*
X015600Y015450D03*
X017300Y012850D03*
X017300Y012350D03*
X018800Y011450D03*
X019000Y011050D03*
X019300Y010750D03*
X020400Y010250D03*
X020800Y010550D03*
X023300Y011050D03*
X024100Y008950D03*
X022700Y007950D03*
X022400Y007450D03*
X023500Y006950D03*
X023800Y006550D03*
X024200Y006150D03*
X026500Y007950D03*
X028800Y006950D03*
X031500Y007950D03*
X032800Y006950D03*
X034300Y007950D03*
X032300Y004350D03*
X028100Y003850D03*
X022700Y003950D03*
X011600Y008050D03*
X010100Y008650D03*
X009500Y008950D03*
X010100Y009550D03*
X011600Y009450D03*
X008600Y008050D03*
X007900Y009350D03*
X004800Y007250D03*
X002400Y009350D03*
X007000Y014950D03*
X007600Y016750D03*
X010100Y017150D03*
X020226Y023424D03*
X020500Y025850D03*
X025700Y021950D03*
X025500Y020450D03*
X028100Y021550D03*
X036200Y023750D03*
D18*
X007000Y014950D02*
X006813Y015137D01*
X006813Y025578D01*
M02*
