G75*
G70*
%OFA0B0*%
%FSLAX24Y24*%
%IPPOS*%
%LPD*%
%AMOC8*
5,1,8,0,0,1.08239X$1,22.5*
%
%ADD10R,0.0158X0.0651*%
%ADD11R,0.0651X0.0158*%
%ADD12R,0.0336X0.0296*%
%ADD13C,0.0545*%
%ADD14R,0.0454X0.0493*%
%ADD15R,0.0532X0.0532*%
%ADD16R,0.0493X0.0454*%
%ADD17R,0.0572X0.0572*%
%ADD18R,0.1477X0.0572*%
%ADD19R,0.0651X0.0828*%
%ADD20R,0.1005X0.0847*%
%ADD21C,0.0690*%
%ADD22C,0.0769*%
%ADD23OC8,0.0820*%
%ADD24C,0.0619*%
%ADD25OC8,0.0619*%
%ADD26R,0.0969X0.0257*%
%ADD27C,0.0414*%
%ADD28R,0.0651X0.0572*%
%ADD29C,0.0720*%
%ADD30R,0.1060X0.1060*%
%ADD31R,0.1320X0.0532*%
%ADD32R,0.1084X0.0316*%
%ADD33C,0.1241*%
%ADD34R,0.0828X0.0651*%
%ADD35R,0.0532X0.1320*%
%ADD36R,0.0296X0.0336*%
%ADD37R,0.0532X0.0277*%
%ADD38C,0.0394*%
%ADD39C,0.0454*%
%ADD40C,0.0383*%
D10*
X018817Y012637D03*
X019014Y012637D03*
X019211Y012637D03*
X019408Y012637D03*
X019605Y012637D03*
X019802Y012637D03*
X019998Y012637D03*
X020195Y012637D03*
X020392Y012637D03*
X020589Y012637D03*
X020786Y012637D03*
X020983Y012637D03*
X020983Y016022D03*
X020786Y016022D03*
X020589Y016022D03*
X020392Y016022D03*
X020195Y016022D03*
X019998Y016022D03*
X019802Y016022D03*
X019605Y016022D03*
X019408Y016022D03*
X019211Y016022D03*
X019014Y016022D03*
X018817Y016022D03*
D11*
X018207Y015412D03*
X018207Y015215D03*
X018207Y015019D03*
X018207Y014822D03*
X018207Y014625D03*
X018207Y014428D03*
X018207Y014231D03*
X018207Y014034D03*
X018207Y013837D03*
X018207Y013641D03*
X018207Y013444D03*
X018207Y013247D03*
X021593Y013247D03*
X021593Y013444D03*
X021593Y013641D03*
X021593Y013837D03*
X021593Y014034D03*
X021593Y014231D03*
X021593Y014428D03*
X021593Y014625D03*
X021593Y014822D03*
X021593Y015019D03*
X021593Y015215D03*
X021593Y015412D03*
D12*
X031500Y006956D03*
X032287Y006582D03*
X032287Y007330D03*
X009194Y010692D03*
X009194Y011440D03*
X008406Y011066D03*
D13*
X019150Y009559D03*
X021050Y009559D03*
D14*
X020950Y007794D03*
X020950Y007125D03*
X019408Y007114D03*
X019408Y007783D03*
X012325Y010859D03*
X012325Y011529D03*
X010969Y011529D03*
X010969Y010859D03*
X008800Y009700D03*
X008800Y009031D03*
X006992Y006394D03*
X006992Y005725D03*
X006103Y005725D03*
X006103Y006394D03*
X005203Y006394D03*
X005203Y005725D03*
X003300Y010028D03*
X003300Y010697D03*
X008800Y012531D03*
X008800Y013200D03*
X008700Y014931D03*
X008700Y015600D03*
X003300Y016928D03*
X003300Y017597D03*
X032300Y024631D03*
X032300Y025300D03*
D15*
X033250Y002720D03*
X033250Y001893D03*
X002400Y009949D03*
X002400Y010776D03*
X002400Y016849D03*
X002400Y017676D03*
D16*
X008065Y022566D03*
X008735Y022566D03*
X014065Y022566D03*
X014735Y022566D03*
X020265Y022566D03*
X020935Y022566D03*
X025765Y022566D03*
X026435Y022566D03*
X026565Y012866D03*
X027235Y012866D03*
X025735Y009163D03*
X025065Y009163D03*
X025065Y007956D03*
X025735Y007956D03*
X025735Y006050D03*
X025065Y006050D03*
X032265Y008556D03*
X032935Y008556D03*
X033247Y003709D03*
X032578Y003709D03*
X014835Y005950D03*
X014165Y005950D03*
X006335Y003450D03*
X005665Y003450D03*
X010065Y013266D03*
X010735Y013266D03*
X010735Y014166D03*
X010065Y014166D03*
X010065Y015666D03*
X010735Y015666D03*
D17*
X011006Y020767D03*
X010100Y020767D03*
X009194Y020767D03*
D18*
X010100Y018365D03*
D19*
X007900Y019624D03*
X007900Y020707D03*
X006200Y016007D03*
X006200Y014924D03*
X010900Y009407D03*
X010900Y008324D03*
D20*
X003978Y012030D03*
X001813Y012030D03*
X001813Y015495D03*
X003978Y015495D03*
X005091Y019100D03*
X002650Y019100D03*
X002650Y023431D03*
X005091Y023431D03*
D21*
X002650Y021266D03*
D22*
X004422Y021266D03*
D23*
X004813Y025578D03*
X005813Y025578D03*
X006813Y025578D03*
D24*
X035000Y017966D03*
D25*
X036000Y017966D03*
X036000Y016966D03*
X035000Y016966D03*
X035000Y015966D03*
X036000Y015966D03*
X036000Y014966D03*
X035000Y014966D03*
X035000Y013966D03*
X036000Y013966D03*
X036000Y012966D03*
X035000Y012966D03*
X035000Y011966D03*
X036000Y011966D03*
X036000Y010966D03*
X035000Y010966D03*
X035000Y009966D03*
X036000Y009966D03*
X036000Y008966D03*
X035000Y008966D03*
D26*
X004200Y013133D03*
X004200Y013448D03*
X004200Y013763D03*
X004200Y014078D03*
X004200Y014393D03*
D27*
X002994Y014629D03*
X002994Y012896D03*
D28*
X017937Y012408D03*
X017937Y011660D03*
X021800Y011592D03*
X021800Y012340D03*
D29*
X022100Y001550D03*
X021100Y001550D03*
X020100Y001550D03*
X019100Y001550D03*
X018100Y001550D03*
X017100Y001550D03*
X016100Y001550D03*
X015100Y001550D03*
X014100Y001550D03*
X013100Y001550D03*
X012100Y001550D03*
X011100Y001550D03*
X010100Y001550D03*
X009100Y001550D03*
X008100Y001550D03*
X023100Y001550D03*
X024100Y001550D03*
X025100Y001550D03*
X026100Y001550D03*
X027100Y001550D03*
X028100Y001550D03*
X029100Y001550D03*
X030100Y001550D03*
X031100Y001550D03*
X031100Y027050D03*
X030100Y027050D03*
X029100Y027050D03*
X028100Y027050D03*
X027100Y027050D03*
X026100Y027050D03*
X025100Y027050D03*
X024100Y027050D03*
X023100Y027050D03*
X022100Y027050D03*
X021100Y027050D03*
X020100Y027050D03*
X019100Y027050D03*
X018100Y027050D03*
X017100Y027050D03*
X016100Y027050D03*
X015100Y027050D03*
X014100Y027050D03*
X013100Y027050D03*
X012100Y027050D03*
X011100Y027050D03*
X010100Y027050D03*
X009100Y027050D03*
X008100Y027050D03*
X033100Y027066D03*
D30*
X007425Y017666D03*
X005575Y017666D03*
D31*
X034161Y006200D03*
X034161Y004625D03*
X036839Y004625D03*
X036839Y006200D03*
D32*
X036228Y021266D03*
X036228Y021766D03*
X036228Y022266D03*
X036228Y022766D03*
X036228Y023266D03*
X034772Y023266D03*
X034772Y022766D03*
X034772Y022266D03*
X034772Y021766D03*
X034772Y021266D03*
D33*
X002667Y002519D03*
X002667Y026125D03*
X036131Y026113D03*
X036131Y002519D03*
D34*
X030241Y006050D03*
X029159Y006050D03*
D35*
X004087Y005411D03*
X002513Y005411D03*
X002513Y008089D03*
X004087Y008089D03*
D36*
X005326Y007266D03*
X006074Y007266D03*
X005700Y008053D03*
D37*
X005488Y002324D03*
X005488Y001576D03*
X006512Y001576D03*
X006512Y001950D03*
X006512Y002324D03*
D38*
X014626Y018676D02*
X014628Y018719D01*
X014634Y018761D01*
X014644Y018803D01*
X014657Y018844D01*
X014674Y018884D01*
X014695Y018921D01*
X014719Y018957D01*
X014746Y018990D01*
X014776Y019021D01*
X014809Y019049D01*
X014844Y019074D01*
X014881Y019095D01*
X014920Y019113D01*
X014960Y019127D01*
X015002Y019138D01*
X015044Y019145D01*
X015087Y019148D01*
X015130Y019147D01*
X015173Y019142D01*
X015215Y019133D01*
X015256Y019121D01*
X015296Y019105D01*
X015334Y019085D01*
X015370Y019062D01*
X015404Y019035D01*
X015436Y019006D01*
X015464Y018974D01*
X015490Y018939D01*
X015512Y018903D01*
X015531Y018864D01*
X015546Y018824D01*
X015558Y018783D01*
X015566Y018740D01*
X015570Y018697D01*
X015570Y018655D01*
X015566Y018612D01*
X015558Y018569D01*
X015546Y018528D01*
X015531Y018488D01*
X015512Y018449D01*
X015490Y018413D01*
X015464Y018378D01*
X015436Y018346D01*
X015404Y018317D01*
X015370Y018290D01*
X015334Y018267D01*
X015296Y018247D01*
X015256Y018231D01*
X015215Y018219D01*
X015173Y018210D01*
X015130Y018205D01*
X015087Y018204D01*
X015044Y018207D01*
X015002Y018214D01*
X014960Y018225D01*
X014920Y018239D01*
X014881Y018257D01*
X014844Y018278D01*
X014809Y018303D01*
X014776Y018331D01*
X014746Y018362D01*
X014719Y018395D01*
X014695Y018431D01*
X014674Y018468D01*
X014657Y018508D01*
X014644Y018549D01*
X014634Y018591D01*
X014628Y018633D01*
X014626Y018676D01*
X031026Y021713D02*
X031028Y021756D01*
X031034Y021798D01*
X031044Y021840D01*
X031057Y021881D01*
X031074Y021921D01*
X031095Y021958D01*
X031119Y021994D01*
X031146Y022027D01*
X031176Y022058D01*
X031209Y022086D01*
X031244Y022111D01*
X031281Y022132D01*
X031320Y022150D01*
X031360Y022164D01*
X031402Y022175D01*
X031444Y022182D01*
X031487Y022185D01*
X031530Y022184D01*
X031573Y022179D01*
X031615Y022170D01*
X031656Y022158D01*
X031696Y022142D01*
X031734Y022122D01*
X031770Y022099D01*
X031804Y022072D01*
X031836Y022043D01*
X031864Y022011D01*
X031890Y021976D01*
X031912Y021940D01*
X031931Y021901D01*
X031946Y021861D01*
X031958Y021820D01*
X031966Y021777D01*
X031970Y021734D01*
X031970Y021692D01*
X031966Y021649D01*
X031958Y021606D01*
X031946Y021565D01*
X031931Y021525D01*
X031912Y021486D01*
X031890Y021450D01*
X031864Y021415D01*
X031836Y021383D01*
X031804Y021354D01*
X031770Y021327D01*
X031734Y021304D01*
X031696Y021284D01*
X031656Y021268D01*
X031615Y021256D01*
X031573Y021247D01*
X031530Y021242D01*
X031487Y021241D01*
X031444Y021244D01*
X031402Y021251D01*
X031360Y021262D01*
X031320Y021276D01*
X031281Y021294D01*
X031244Y021315D01*
X031209Y021340D01*
X031176Y021368D01*
X031146Y021399D01*
X031119Y021432D01*
X031095Y021468D01*
X031074Y021505D01*
X031057Y021545D01*
X031044Y021586D01*
X031034Y021628D01*
X031028Y021670D01*
X031026Y021713D01*
D39*
X031498Y021713D03*
X015098Y018676D03*
D40*
X016000Y019650D03*
X016400Y019850D03*
X016100Y020450D03*
X017100Y020950D03*
X017600Y020150D03*
X018100Y019850D03*
X018600Y021650D03*
X020100Y021550D03*
X020600Y021950D03*
X020400Y020950D03*
X020400Y019450D03*
X020700Y018750D03*
X020900Y018250D03*
X021000Y017750D03*
X021100Y017350D03*
X022500Y016850D03*
X023200Y016550D03*
X023500Y016250D03*
X023800Y015890D03*
X024200Y015470D03*
X024500Y015050D03*
X025400Y013850D03*
X026000Y013550D03*
X025100Y011850D03*
X025700Y011050D03*
X026500Y010550D03*
X027300Y011850D03*
X028900Y011450D03*
X029100Y012450D03*
X030300Y014250D03*
X032600Y014850D03*
X033000Y011850D03*
X033500Y010950D03*
X036700Y011450D03*
X037100Y012450D03*
X037500Y014450D03*
X037600Y015450D03*
X033000Y017950D03*
X033500Y019450D03*
X030100Y018250D03*
X029100Y018750D03*
X028100Y017350D03*
X025700Y016850D03*
X022880Y015890D03*
X022880Y015470D03*
X022880Y015050D03*
X023240Y013850D03*
X023300Y013350D03*
X022400Y013250D03*
X021800Y012850D03*
X020200Y013750D03*
X019200Y013750D03*
X019200Y014750D03*
X017300Y015450D03*
X015600Y015450D03*
X013700Y017750D03*
X012300Y017150D03*
X011800Y016550D03*
X011500Y016250D03*
X010100Y017150D03*
X007600Y016750D03*
X007000Y014950D03*
X009600Y014850D03*
X012300Y013150D03*
X012800Y012750D03*
X012300Y012350D03*
X013300Y011350D03*
X014100Y010250D03*
X014900Y011050D03*
X015300Y010750D03*
X014100Y009450D03*
X015600Y008150D03*
X014900Y007550D03*
X015300Y007150D03*
X015700Y007450D03*
X016100Y006850D03*
X016500Y006250D03*
X016700Y005050D03*
X018500Y005750D03*
X019100Y006150D03*
X020100Y005750D03*
X018100Y006950D03*
X017100Y008150D03*
X017300Y008650D03*
X019300Y010750D03*
X019000Y011050D03*
X018800Y011450D03*
X017300Y012350D03*
X017300Y012850D03*
X020400Y010250D03*
X020800Y010550D03*
X023300Y011050D03*
X024100Y008950D03*
X022700Y007950D03*
X022400Y007450D03*
X023500Y006950D03*
X023800Y006550D03*
X024200Y006150D03*
X026500Y007950D03*
X028800Y006950D03*
X031500Y007950D03*
X032800Y006950D03*
X034300Y007950D03*
X032300Y004350D03*
X028100Y003850D03*
X022700Y003950D03*
X013700Y006850D03*
X013300Y005750D03*
X012100Y006550D03*
X011100Y005750D03*
X009100Y005750D03*
X008600Y005750D03*
X008100Y006150D03*
X007800Y007150D03*
X008600Y008050D03*
X009500Y008950D03*
X010100Y008650D03*
X010100Y009550D03*
X011600Y009450D03*
X011600Y008050D03*
X007900Y009350D03*
X004800Y007250D03*
X002400Y009350D03*
X005200Y004950D03*
X007200Y003950D03*
X006500Y002750D03*
X010100Y012350D03*
X012200Y019650D03*
X011800Y020150D03*
X011000Y021650D03*
X010200Y022550D03*
X011000Y024650D03*
X009100Y024650D03*
X007600Y021850D03*
X013300Y022550D03*
X014100Y021950D03*
X015400Y021950D03*
X016800Y022650D03*
X020226Y023424D03*
X020500Y025850D03*
X025700Y021950D03*
X025500Y020450D03*
X028100Y021550D03*
X036200Y023750D03*
M02*
